<?xml version="1.0" encoding="utf-8"?>
<!-- Generator: Adobe Illustrator 25.2.0, SVG Export Plug-In . SVG Version: 6.00 Build 0)  -->
<svg version="1.1" id="Layer_1" xmlns="http://www.w3.org/2000/svg" xmlns:xlink="http://www.w3.org/1999/xlink" x="0px" y="0px"
	 viewBox="0 0 850.39 850.39" style="enable-background:new 0 0 850.39 850.39;" xml:space="preserve">
<g id="wWNm4T.tif">
	<g>
		<path d="M333.76,229.01c0.23-0.12,0.46-0.35,0.68-0.34c0.96,0.02,1.83-0.31,2.72-0.61c1.77-0.59,3.55-1.2,5.37-1.62
			c1.36-0.31,2.63-0.89,4.02-1.12c1.31-0.21,2.56-0.75,3.83-1.14c0.7-0.21,1.4-0.42,2.11-0.61c0.32-0.09,0.7-0.07,0.97-0.24
			c1.56-0.97,3.42-1.01,5.08-1.67c0.67-0.26,1.43-0.47,2.14-0.45c1.17,0.03,2.19-0.47,3.27-0.73c0.78-0.18,1.55-0.5,2.33-0.56
			c1.48-0.11,2.78-0.86,4.26-0.99c1.32-0.12,2.64-0.4,3.93-0.74c1.09-0.29,2.14-0.73,3.19-1.16c2.09-0.86,4.2-1.68,6.36-2.37
			c1.31-0.42,2.65-0.71,3.96-1.16c1.25-0.43,2.59-0.65,3.91-0.86c1.05-0.17,2.12-0.23,3.09-0.75c0.28-0.15,0.64-0.18,0.97-0.21
			c2.29-0.21,4.45-0.89,6.56-1.74c0.43-0.17,0.86-0.39,1.31-0.49c0.43-0.1,0.97-0.18,0.82,0.6c0,0.01,0.27,0.11,0.29,0.08
			c0.94-1.28,2.34-1.65,3.77-2.03c1.87-0.49,3.71-1.08,5.58-1.58c2.32-0.62,4.66-1.2,6.99-1.78c0.39-0.1,0.79-0.17,1.19-0.17
			c1.82,0,3.56-0.37,5.29-0.97c0.87-0.3,1.82-0.51,2.74-0.55c1.31-0.06,2.51-0.43,3.64-1c0.89-0.45,1.76-0.58,2.71-0.39
			c0.65,0.13,1.29,0.14,1.95,0.15c1.95,0.01,3.79,0.5,5.49,1.53c1.25,0.76,2.62,1.33,3.85,2.1c2.59,1.63,5.3,3.09,7.66,5.08
			c1.22,1.03,2.59,1.88,3.83,2.89c0.88,0.72,1.65,1.55,2.65,2.12c0.63,0.37,1.21,0.82,1.84,1.19c2.66,1.55,5.28,3.14,7.68,5.07
			c0.26,0.21,0.53,0.42,0.83,0.57c2.75,1.4,5.1,3.42,7.65,5.12c1.33,0.89,2.73,1.67,4.07,2.54c2.29,1.5,4.54,3.04,6.79,4.61
			c1.26,0.88,2.62,1.6,3.68,2.75c0.09,0.09,0.22,0.18,0.34,0.2c1.57,0.29,2.67,1.46,4,2.19c0.31,0.17,0.49,0.6,0.73,0.91
			c0,0-0.1,0.05-0.1,0.05l0.06-0.09c1.28,0.39,2.46,0.94,3.25,2.09c-0.47-0.14-0.93-0.15-1.23,0.31c-0.09,0.13-0.12,0.39-0.05,0.52
			c0.07,0.13,0.31,0.25,0.46,0.25c0.72-0.04,0.76-0.58,0.77-1.14c0.64,0.35,1.32,0.64,1.92,1.06c1.91,1.34,3.79,2.72,5.69,4.09
			c0.22,0.16,0.44,0.31,0.65,0.47c0.83,0.67,1.94,0.85,2.7,1.69c0.71,0.78,1.58,1.43,2.44,2.06c3.12,2.28,6.14,4.71,9.44,6.74
			c1.19,0.73,2.26,1.66,3.42,2.44c1.16,0.78,2.14,1.77,3.4,2.45c1.21,0.66,2.17,1.74,3.52,2.24c0.18,0.06,0.29,0.43,0.34,0.67
			c0.17,0.78,0.18,0.87,0.66,0.73c0.44-0.13,0.78-0.06,1.12,0.17c2.05,1.38,4.19,2.63,6.11,4.2c0.61,0.5,1.32,0.9,1.99,1.34
			c0.28,0.18,0.62,0.31,0.83,0.55c1.19,1.31,2.83,2.01,4.15,3.14c0.45,0.38,1,0.65,1.52,0.95c0.75,0.43,1.54,0.8,2.26,1.28
			c2.35,1.53,4.67,3.09,6.99,4.67c0.44,0.3,0.79,0.72,1.19,1.07c0.14,0.13,0.3,0.31,0.46,0.33c0.93,0.11,1.52,0.78,2.22,1.28
			c1.42,1,2.9,1.92,4.31,2.92c1.24,0.88,2.76,1.41,3.63,2.78c1.11,0.37,1.86,1.28,2.78,1.92c1.2,0.84,2.41,1.65,3.62,2.46
			c1.6,1.08,3.21,2.15,4.82,3.23c0.11,0.07,0.25,0.12,0.33,0.22c1.12,1.26,2.63,2.04,3.94,3.07c1.99,1.57,4.03,3.09,6.14,4.49
			c1.66,1.11,3.47,2.01,5.2,3.01c0.35,0.2,0.7,0.4,1.02,0.63c1.93,1.44,3.8,2.97,5.8,4.3c1.54,1.03,3.08,2.11,4.8,2.85
			c0.36,0.16,0.82,0.35,0.98,0.66c0.41,0.79,1.24,0.85,1.86,1.25c0.95,0.62,1.96,1.13,2.9,1.75c1.33,0.89,2.56,1.95,3.94,2.75
			c2.37,1.38,4.35,3.29,6.66,4.74c1.64,1.03,3.16,2.24,4.73,3.37c0.16,0.12,0.3,0.27,0.42,0.43c0.51,0.74,1.23,1.19,2.01,1.6
			c0.7,0.38,1.36,0.84,1.99,1.33c1.59,1.22,3.35,2.17,5.06,3.2c1.14,0.69,2.24,1.46,3.35,2.2c2.44,1.63,4.89,3.26,7.32,4.9
			c0.66,0.45,1.31,0.92,1.95,1.39c4.08,3.03,8.18,6.02,12.21,9.12c2.02,1.55,4.1,2.99,6.24,4.34c0.9,0.57,1.76,1.23,2.56,1.93
			c1.96,1.71,4.21,3.03,6.28,4.59c1.91,1.44,4.08,2.54,5.78,4.28c0.92,0.31,1.52,1.07,2.27,1.6c1.91,1.34,3.59,2.99,5.73,4.01
			c0.9,0.43,1.69,1.08,2.52,1.63c1.12,0.73,2.24,1.45,3.35,2.2c1.27,0.85,2.58,1.66,3.73,2.7c1.04,0.94,2.13,1.84,3.3,2.6
			c2.16,1.39,3.78,3.39,5.78,4.94c0.8,1.15,1.61,2.29,2.4,3.45c1.21,1.76,1.39,3.84,1.69,5.86c0.4,2.64,0.63,5.3,0.93,7.94
			c0.02,0.13-0.03,0.28,0.02,0.4c0.6,1.49,0.52,3.13,1,4.65c0.46,1.45,0.47,2.96-0.13,4.32c-0.58,1.32-1.41,2.49-2.74,3.32
			c-1.23,0.76-2.57,1.11-3.88,1.55c-2.91,0.98-5.86,1.86-8.79,2.76c-0.51,0.16-1.04,0.23-1.56,0.35c-2.5,0.58-4.83,1.51-6.94,3.01
			c-1.27,0.9-2.15,2.19-3.29,3.22c-0.18,0.16-0.27,0.46-0.35,0.71c-0.46,1.33-0.82,2.67-1,4.08c-0.22,1.71-0.55,3.42-1.25,5.01
			c-0.11,0.26-0.18,0.47-0.08,0.75c0.25,0.73,0.12,1.46-0.04,2.18c-0.32,1.43-0.65,2.86-0.99,4.29c-0.17,0.71-0.33,1.44-0.61,2.12
			c-0.26,0.63-0.39,1.26-0.47,1.93c-0.24,1.85-0.54,3.69-0.55,5.56c0,0.81-0.12,1.6-0.47,2.34c-0.14,0.3-0.35,0.63-0.33,0.94
			c0.16,2.46-0.59,4.87-0.15,7.37c0.29,1.62,0.07,3.33,0.03,4.99c-0.03,1.33-0.15,2.65-0.2,3.98c-0.05,1.26-0.27,2.53,0.14,3.78
			c0.06,0.17-0.03,0.39-0.05,0.59c-0.32,2.92-0.36,5.85-0.32,8.78c0,0.07,0.01,0.14,0,0.2c-0.5,2.49,0.12,4.91,0.51,7.34
			c0.16,1.04,0.19,2.11,0.29,3.17c0.12,1.26,0.26,2.52,0.4,3.78c0.07,0.66,0.23,1.33,0.18,1.99c-0.11,1.46,0.13,2.9,0.1,4.36
			c-0.03,1.39,0.17,2.8,0.36,4.19c0.12,0.85,0.41,1.67,0.62,2.51c0.17,0.71,0.38,1.42,0.46,2.15c0.05,0.49,0.15,0.89,0.52,1.24
			c0.57,0.54,0.84,1.25,0.76,2c-0.11,1.03,0.28,1.97,0.35,2.97c0.06,0.76,0.5,1.38,1.11,1.84c2.07,1.55,4.15,3.08,6.22,4.63
			c2.08,1.56,4.13,3.16,6.21,4.71c0.96,0.72,1.99,1.36,2.98,2.03c0.28,0.19,0.56,0.36,0.83,0.56c1.31,0.92,2.46,2.04,3.84,2.88
			c0.5,0.3,0.87,0.83,1.25,1.29c0.81,0.97,1.62,1.96,2.39,2.96c0.94,1.23,1.66,2.58,1.95,4.13c0.04,0.2,0.05,0.41,0.14,0.58
			c1.21,2.56,0.78,5.2,0.4,7.84c-0.11,0.79-0.28,1.58-0.32,2.38c-0.09,1.92-0.78,3.66-1.62,5.32c-0.54,1.06-1.52,1.86-2.66,2.36
			c-3.17,1.42-6.31,2.92-9.54,4.21c-2.42,0.96-4.8,2.01-7.24,2.92c-2.81,1.05-5.6,2.17-8.44,3.17c-0.69,0.24-1.3,0.67-1.97,0.97
			c-2.01,0.91-4.02,1.81-6.05,2.69c-0.49,0.21-1.04,0.26-1.53,0.46c-1.99,0.78-3.97,1.6-5.96,2.37c-2.06,0.79-4.13,1.56-6.2,2.3
			c-1.64,0.58-3.3,1.09-4.94,1.65c-0.82,0.28-1.63,0.59-2.44,0.89c-0.38,0.14-0.74,0.36-1.13,0.41c-1.63,0.22-3.03,1.04-4.51,1.62
			c-2.93,1.15-5.82,2.38-8.74,3.54c-0.86,0.34-1.78,0.55-2.68,0.82c-0.19,0.06-0.44,0.03-0.58,0.14c-0.85,0.74-1.95,0.83-2.94,1.21
			c-1.31,0.51-2.68,0.83-4.02,1.24c-1.27,0.39-2.46,1.02-3.69,1.51c-2.35,0.95-4.72,1.87-7.07,2.81c-0.43,0.17-0.84,0.41-1.27,0.6
			c-0.36,0.16-0.73,0.33-1.11,0.43c-1.53,0.42-3.06,0.83-4.58,1.27c-1.16,0.33-2.27,0.72-3.36,1.23c-0.06,0.03-0.12,0.07-0.18,0.08
			c-1.56,0.13-2.92,0.78-4.27,1.52c-0.57,0.32-1.25,0.52-1.91,0.59c-1.02,0.1-1.94,0.5-2.86,0.85c-2.61,0.99-5.17,2.1-7.76,3.12
			c-1.62,0.63-3.28,1.16-4.9,1.78c-1.68,0.64-3.36,1.31-5.01,2.03c-2.94,1.27-5.86,2.61-8.81,3.86c-1.16,0.49-2.39,0.81-3.59,1.21
			c-0.19,0.06-0.38,0.09-0.56,0.17c-2.08,0.89-4.11,1.91-6.35,2.37c-2.59,1.24-5.41,1.87-8.03,3.05c-2.49,1.12-5.08,2.02-7.77,2.59
			c-0.2,0.04-0.41,0.05-0.59,0.13c-2.82,1.24-5.85,1.79-8.75,2.76c-1.2,0.4-2.35,0.94-3.53,1.4c-2.62,1.02-5.24,2.02-7.86,3.03
			c-0.06,0.02-0.12,0.06-0.19,0.07c-3.08,0.41-5.83,1.89-8.76,2.79c-2.29,0.7-4.46,1.76-6.7,2.63c-0.87,0.34-1.78,0.58-2.67,0.86
			c-1.15,0.36-2.29,0.74-3.44,1.07c-0.77,0.22-1.57,0.33-2.33,0.56c-1.21,0.38-2.4,0.83-3.61,1.24c-2.4,0.81-4.81,1.61-7.21,2.41
			l-0.08-0.1l0.12,0.07c-1.4,0.93-2.99,1.43-4.54,2.02c-0.44,0.17-0.9,0.26-1.33,0.45c-0.5,0.22-0.97,0.39-1.54,0.33
			c-0.3-0.03-0.71,0.06-0.94,0.25c-1.45,1.19-3.29,1.42-4.93,2.14c-1.59,0.69-3.2,1.36-4.86,1.86c-1.98,0.6-3.91,1.29-5.82,2.09
			c-1.04,0.44-2.14,0.77-3.21,1.12c-0.81,0.27-1.64,0.48-2.45,0.73c-1.98,0.6-3.96,1.21-5.94,1.82c-0.13,0.04-0.27,0.05-0.39,0.11
			c-2.49,1.34-5.32,1.74-7.85,3c-1.61,0.8-3.36,1.3-5.07,1.87c-0.82,0.27-1.68,0.46-2.53,0.6c-0.74,0.11-1.43,0.28-2.08,0.66
			c-1.76,1.02-3.71,1.46-5.68,1.85c-1.06,0.21-2.03,0.61-3.02,1.03c-2.03,0.86-4.06,1.75-6.15,2.44c-2.03,0.67-4.14,1.08-6.2,1.65
			c-2.12,0.59-4.22,1.25-6.34,1.85c-0.5,0.14-1.04,0.17-1.56,0.25c-0.06-0.01-0.12-0.02-0.18-0.04c0.04,0.03,0.08,0.07,0.11,0.1
			c-1.83,0.98-3.78,1.62-5.83,1.95c-1.38,0.22-2.75,0.5-4.16,0.43c-0.32-0.02-0.64,0.14-0.97,0.19c-1.45,0.2-2.89,0.4-4.34,0.59
			c-0.53,0.07-1.08,0.04-1.57,0.2c-2.62,0.83-5.28,0.56-7.94,0.41c-2.44-0.13-4.88-0.39-7.33-0.22c-0.47,0.03-0.94,0.01-1.24,0.48
			l0.04-0.05c-2.22-0.43-4.47-0.77-6.66-1.33c-1.99-0.5-3.94-1.21-5.74-2.24c-1.61-0.92-3.29-1.74-4.81-2.79
			c-1.52-1.05-2.89-2.31-4.32-3.49c-1.33-1.1-2.68-2.19-3.96-3.35c-1.33-1.21-2.58-2.5-3.86-3.76c-0.66-0.65-1.26-1.39-1.97-1.97
			c-0.83-0.67-1.31-1.66-2.24-2.24c-0.85-0.53-1.62-1.17-2.39-1.81c-0.4-0.33-0.71-0.77-1.07-1.16l0.1-0.03l-0.06,0.07
			c-0.35-0.31-0.72-0.59-1.04-0.92c-0.7-0.71-1.33-1.52-2.09-2.16c-2.39-2.04-4.63-4.24-6.89-6.42c-0.86-0.82-1.52-1.84-2.33-2.72
			c-1.04-1.12-1.9-2.41-3.15-3.35c-0.42-0.32-0.77-0.77-1.03-1.22c-0.75-1.3-1.86-2.25-2.99-3.2c-0.71-0.6-1.52-1.15-2.07-1.89
			c-1.77-2.36-4.1-4.2-5.88-6.53c-0.12-0.16-0.26-0.31-0.43-0.42c-1.97-1.24-3.22-3.17-4.75-4.84c-0.27-0.3-0.49-0.64-0.8-0.9
			c-1.64-1.41-2.82-3.21-4.27-4.78c-1.45-1.57-2.91-3.13-4.39-4.67c-1.34-1.4-2.69-2.79-4.04-4.18c-1.76-1.82-3.53-3.64-5.3-5.46
			c-1.58-1.63-3.14-3.27-4.88-4.73c-0.4-0.34-0.73-0.79-1.05-1.21c-0.89-1.14-2.04-1.9-3.36-2.44c-0.8-0.33-1.54-0.75-2.24-1.3
			c-0.88-0.7-1.9-1.23-2.88-1.78c-1.52-0.85-2.95-1.8-4.24-2.97c-0.64-0.58-1.34-1.1-2.06-1.59c-1.08-0.72-1.87-1.71-2.68-2.69
			c-0.59-0.72-1.14-1.46-1.76-2.15c-0.7-0.78-1.09-1.82-1.63-2.75c-0.47-0.81-0.94-1.61-1.41-2.42c-0.17-0.29-0.38-0.56-0.5-0.86
			c-0.56-1.35-1.07-2.73-1.66-4.07c-0.24-0.54-0.66-1-1.02-1.47c-0.8-1.06-1.83-1.94-2.44-3.15c0.05-0.02,0.1-0.04,0.14-0.08
			c0.02-0.02,0.02-0.06,0.03-0.09c-0.04,0.07-0.07,0.14-0.11,0.22c-1.15-0.65-1.68-1.88-2.53-2.81c-1.3-1.43-2.37-3.04-3.58-4.55
			c-0.87-1.08-1.66-2.25-2.49-3.37c-1.24-1.67-2.68-3.16-4.07-4.7c-2.5-2.77-5-5.55-7.52-8.31c-1.62-1.78-3.26-3.54-4.89-5.3
			c-1.04-1.12-2.29-2.05-2.93-3.51c-0.08-0.17-0.24-0.36-0.41-0.42c-1-0.39-1.55-1.27-2.18-2.03c-2.4-2.88-4.98-5.57-7.64-8.2
			c-1.71-1.68-3.35-3.45-5.01-5.18c-0.36-0.37-0.82-0.71-0.62-1.37c0.03-0.1-0.35-0.49-0.52-0.48c-0.98,0.08-1.26-0.57-1.5-1.3
			c0.15,0,0.3,0,0.45,0l0.04,0.11l-0.08-0.07c-0.06-0.09-0.13-0.18-0.19-0.27c-0.06,0.09-0.12,0.19-0.19,0.28
			c-0.23-0.13-0.53-0.2-0.68-0.39c-1.25-1.64-2.96-2.85-4.16-4.55c-0.56-0.8-1.37-1.44-2.06-2.15c-1.4-1.44-2.7-2.96-4.06-4.43
			c-1.58-1.71-3.12-3.47-4.89-5.01c-0.8-0.69-1.49-1.51-2.24-2.26c-1.74-1.76-3.5-3.51-5.24-5.27c-0.99-1-1.95-2.02-2.93-3.02
			c-1.17-1.19-2.35-2.38-3.53-3.55c-2.32-2.31-4.68-4.58-6.98-6.91c-1.26-1.27-2.55-2.52-3.56-4.03c-0.35-0.52-1-0.84-1.44-1.31
			c-2.2-2.33-4.46-4.6-6.75-6.83c-1.72-1.68-3.08-3.7-4.98-5.2c-1.2-1.93-3.13-2.83-5.14-3.6c-1.88-0.72-3.64-1.71-5.34-2.76
			c-0.96-0.59-1.75-1.43-2.62-2.16c-0.97-0.82-2-1.58-2.9-2.47c-0.66-0.65-1.21-1.43-1.7-2.22c-1.12-1.81-2.13-3.7-3.27-5.5
			c-0.73-1.14-1.18-2.38-1.64-3.63c-0.21-0.56-0.44-1.13-0.74-1.64c-0.19-0.32-0.5-0.64-0.83-0.82c-2.03-1.12-3.56-2.8-5.17-4.41
			c-0.17-0.17-0.27-0.46-0.31-0.7c-0.07-0.37-0.18-0.61-0.61-0.64c-0.17-0.01-0.37-0.17-0.49-0.31c-0.5-0.62-1.02-1.23-1.43-1.9
			c-0.97-1.6-2.22-2.98-3.32-4.47c-1.46-1.98-2.7-4.12-4.04-6.19c-0.36-0.56-0.72-1.12-1.07-1.69c-1.88-3.08-3.38-6.37-5.16-9.5
			c-0.62-1.1-1.11-2.28-1.55-3.47c-0.97-2.64-2.33-5.1-3.35-7.72c-0.97-2.5-1.8-5.04-2.59-7.59c-0.61-1.98-1.1-4-1.53-6.03
			c-0.62-2.94-1.16-5.9-1.69-8.86c-0.15-0.85-0.18-1.73-0.27-2.59c-0.18-1.86-0.37-3.72-0.55-5.57c-0.1-1.07-0.22-2.13-0.29-3.2
			c-0.09-1.4-0.16-2.8-0.2-4.2c-0.04-1.26,0.14-2.53-0.3-3.76c-0.08-0.23-0.03-0.53,0.02-0.79c0.45-2.19,0.3-4.38,0.09-6.58
			c-0.09-0.92-0.09-1.84,0.07-2.77c0.21-1.24,0.62-2.45,0.32-3.77c-0.12-0.55,0.13-1.18,0.2-1.78c0.27-2.46,0.6-4.89,1.16-7.32
			c1.14-4.94,1.7-6.97,3.64-12c0.6-1.55,1.08-3.16,1.76-4.68c0.32-0.73,0.74-1.42,1.12-2.12c1.49-2.79,3.41-5.27,5.52-7.61
			c0.63-0.69,1.14-1.48,1.71-2.23c1.47-1.91,3.12-3.65,4.93-5.25c0.55-0.49,1.04-1.04,1.56-1.56c0.42-0.42,0.84-0.82,1.37-1.15
			c0.72-0.45,1.34-1.1,1.95-1.7c0.82-0.8,1.69-1.46,2.74-1.96c1.2-0.58,2.28-1.39,3.42-2.09c0.45-0.28,0.9-0.58,1.36-0.83
			c2.06-1.1,4.1-2.24,6.2-3.27c1.86-0.91,3.77-1.7,5.66-2.54c0.12-0.05,0.24-0.12,0.37-0.15c2.18-0.4,4.11-1.55,6.25-2.05
			c0.19-0.05,0.38-0.12,0.56-0.22c2.37-1.25,4.94-1.97,7.48-2.77c1.06-0.33,2.2-0.54,3.11-1.27c1.83-0.41,3.54-1.18,5.32-1.71
			c2.23-0.67,4.46-1.38,6.71-1.98c0.43-0.11,0.83-0.48,1.32-0.11c0.08,0.06,0.38-0.05,0.51-0.16c0.47-0.4,1.01-0.6,1.59-0.78
			c1.97-0.62,3.91-1.37,5.88-2c2.16-0.69,4.34-1.32,6.52-1.96c2.82-0.83,5.64-1.65,8.46-2.45c1.02-0.29,2.07-0.52,3.1-0.76
			c1.56-0.37,3.02-1.04,4.62-1.31c0.97-0.17,1.87-0.69,2.82-0.99c2.68-0.83,5.36-1.65,8.05-2.42c0.96-0.28,1.96-0.42,2.95-0.59
			c0.25-0.04,0.56-0.05,0.76,0.06c0.36,0.2,0.62,0.12,0.91-0.1c0.76-0.59,1.65-0.82,2.57-1.05c2.51-0.62,5-1.34,7.5-1.99
			c1.55-0.4,3.1-0.78,4.59-1.42c0.72-0.31,1.55-0.39,2.33-0.54c0.65-0.13,1.27-0.27,1.81-0.71c0.28-0.23,0.72-0.29,1.1-0.4
			c0.64-0.17,1.3-0.27,1.92-0.48c1.2-0.4,2.38-0.86,3.57-1.3c0.19-0.07,0.38-0.19,0.57-0.19c2.19-0.02,4.12-1.1,6.2-1.55
			c3.27-0.7,6.38-1.96,9.57-2.93c2.28-0.69,4.49-1.65,6.78-2.32c1.45-0.43,2.84-1.13,4.41-1.1c0.33,0.01,0.68-0.03,0.98-0.16
			c1.99-0.82,4.13-1.06,6.2-1.59c0.52-0.13,1.03-0.27,1.56-0.39c0.71-0.15,1.34-0.5,2.12-0.51c0.59-0.01,1.26-0.34,1.87-0.55
			c1.57-0.54,3.21-0.79,4.76-1.5c1.81-0.82,3.8-1.25,5.74-1.73c0.37-0.09,0.78-0.09,1.1-0.31c0.91-0.63,2.03-0.64,2.99-1.1
			c1.04,0.31,1.94-0.29,2.88-0.5c1.62-0.37,3.2-0.91,4.81-1.35c1.02-0.28,2.02-0.71,3.11-0.72c0.2,0,0.4-0.06,0.59-0.11
			c1.09-0.32,2.17-0.73,3.28-0.94c1.1-0.21,2.16-0.52,3.24-0.77c1.26-0.29,2.36-0.91,3.56-1.32c2.78-0.96,5.65-1.61,8.44-2.53
			l0.04,0.09C333.84,229.06,333.76,229.01,333.76,229.01z M228.47,260.42l-0.1,0.05l0.05-0.1l0.13-0.1L228.47,260.42z M156.5,381.74
			l0.06,0.11c0,0-0.11-0.06-0.11-0.06c0.17-0.55,0.26-1.15,0.52-1.66c1.31-2.48,2.65-4.94,4.03-7.38c0.53-0.92,1.18-1.79,1.85-2.61
			c0.97-1.19,2.01-2.32,3-3.49c1.72-2.04,3.17-4.31,5.06-6.22c0.8-0.8,1.5-1.7,2.25-2.56c0.66-0.76,1.31-1.49,2.22-2
			c1.07-0.6,1.91-1.5,2.44-2.61c0.98-2.07,0.76-3.84-1.07-5.18c-2.27-1.67-4.67-1.82-7.05,0.01c-1.37,1.05-2.59,2.3-3.88,3.46
			c-0.4,0.36-0.81,0.7-1.19,1.07c-1.42,1.39-2.84,2.8-4.25,4.2c-0.14,0.14-0.23,0.33-0.35,0.49c-0.52,0.69-1.07,1.37-1.57,2.08
			c-1.69,2.41-3.39,4.81-5.01,7.27c-0.7,1.05-1.11,2.29-1.84,3.31c-1.13,1.59-2,3.31-2.9,5.02c-0.72,1.36-1.44,2.72-2.08,4.11
			c-0.81,1.76-1.5,3.57-2.29,5.33c-1.07,2.39-1.85,4.88-2.45,7.41c-0.78,3.31-1.55,6.62-2.08,10c-0.38,2.44-0.66,4.89-0.98,7.34
			c-0.12,0.93-0.34,1.85-0.37,2.77c-0.07,2.67-0.16,5.35-0.06,8.02c0.09,2.33,0.36,4.66,0.66,6.98c0.54,4.1,1.28,8.16,2.74,12.06
			c0.97,2.59,2.23,5,4.07,7.08c0.84,0.95,1.69,1.9,2.59,2.8c0.52,0.51,1.14,0.92,1.72,1.37c0.6,0.46,1.25,0.48,1.88,0.1
			c0.61-0.36,0.65-0.97,0.55-1.6c-0.04-0.26-0.11-0.52-0.18-0.78c-0.7-2.72-1.56-5.38-2.67-7.97c-0.78-1.84-1.48-3.74-1.9-5.69
			c-0.58-2.67-0.96-5.39-1.25-8.11c-0.21-1.92-0.17-3.87-0.17-5.81c0-1.54,0.09-3.08,0.2-4.61c0.06-0.8,0.09-1.66,0.43-2.35
			c0.38-0.78,0.15-1.54,0.29-2.3c0.4-2.1,0.81-4.2,1.12-6.31c0.64-4.44,1.55-8.81,2.99-13.07c0.75-2.22,1.41-4.46,2.6-6.5
			c0.6-1.04,1.15-2.12,1.77-3.15C155.96,381.94,156.28,381.87,156.5,381.74z M451.59,640.68c-2.21,0.44-4.27,1.37-6.42,1.99
			c-0.7,0.2-1.39,0.46-2.08,0.73c-1.74,0.67-3.68,0.73-5.33,1.69c-0.11,0.06-0.26,0.05-0.39,0.08c-1.61,0.45-3.21,0.9-4.82,1.37
			c-1.34,0.39-2.69,0.8-4.02,1.21c-1.34,0.41-2.66,0.86-4,1.26c-3.32,1-6.77,1.48-10.05,2.63c-0.3,0.11-0.66,0.06-0.99,0.09
			c-0.47,0.04-0.95,0.02-1.4,0.13c-3.77,0.89-7.52,1.83-11.3,2.69c-0.76,0.17-1.54,0.44-2.37,0.26c-0.3-0.06-0.68,0.02-0.96,0.17
			c-1.34,0.74-2.84,0.76-4.27,0.88c-1.92,0.16-3.83,0.56-5.77,0.48c-0.2-0.01-0.41,0.01-0.6,0.06c-1.46,0.38-2.92,0.31-4.39,0.11
			c-1.26-0.17-2.51-0.36-3.75-0.61c-1-0.2-1.21,0.28-1.09,1.1c0.05,0.36,0.29,0.73,0.53,1.03c2.23,2.76,5.14,4.42,8.56,5.21
			c0.78,0.18,1.58,0.29,2.34,0.54c1.48,0.48,2.98,0.72,4.53,0.66c0.33-0.01,0.67,0.01,1-0.01c2.81-0.09,5.57-0.37,8.23-1.4
			c1.11-0.43,2.29-0.74,3.47-0.96c2.1-0.4,4.16-0.94,6.18-1.64c2.78-0.96,5.57-1.85,8.37-2.77c1.4-0.46,2.8-0.89,4.2-1.37
			c3.23-1.09,6.46-2.19,9.68-3.31c1.07-0.37,2.15-0.72,3.11-1.38c0.32-0.22,0.73-0.34,1.11-0.43c3.07-0.7,5.89-2.14,8.94-2.88
			c0.06-0.02,0.13-0.03,0.19-0.06c2.65-1.28,5.5-2.03,8.21-3.14c1.85-0.76,3.75-1.36,5.6-2.12c1.9-0.78,3.81-1.59,5.86-1.98
			c0.65-0.12,1.31-0.33,1.87-0.66c0.71-0.42,1.47-0.61,2.25-0.81c0.64-0.16,1.28-0.38,1.91-0.6c1.01-0.35,2.01-0.72,3.01-1.09
			c1.12-0.42,2.24-0.85,3.36-1.28c2.43-0.92,4.85-1.88,7.3-2.74c1.31-0.46,2.7-0.7,4.03-1.13c1.52-0.48,3.07-0.95,4.51-1.62
			c1.45-0.67,3-1.11,4.35-2.01c0.37-0.25,0.88-0.29,1.32-0.45c1-0.36,2.06-0.63,2.99-1.13c1.84-0.98,3.82-1.59,5.72-2.41
			c0.79-0.34,1.58-0.7,2.41-0.92c1.82-0.47,3.56-1.11,5.27-1.88c0.55-0.25,1.1-0.51,1.68-0.64c1.31-0.3,2.53-0.85,3.77-1.33
			c2.12-0.83,4.23-1.66,6.34-2.49c0.37-0.15,0.74-0.32,1.13-0.41c1.25-0.28,2.42-0.76,3.56-1.32c0.36-0.18,0.75-0.28,1.13-0.42
			c2.82-1.03,5.65-2.06,8.47-3.1c2.76-1.02,5.5-2.07,8.26-3.06c2.39-0.86,4.79-1.67,7.19-2.49c1.52-0.52,3.03-1.04,4.56-1.52
			c0.76-0.24,1.48-0.55,2.29-0.69c0.76-0.13,1.43-0.67,2.18-0.95c3.19-1.18,6.37-2.41,9.61-3.47c1.7-0.56,3.33-1.37,5.14-1.59
			c0.25-0.03,0.53-0.15,0.7-0.32c0.76-0.73,1.72-0.99,2.68-1.31c1.39-0.46,2.8-0.88,4.15-1.45c2.71-1.14,5.38-2.36,8.07-3.54
			c0.36-0.16,0.73-0.31,1.1-0.46c1.11-0.46,2.21-0.93,3.33-1.36c1.92-0.75,3.84-1.51,5.79-2.18c1.64-0.57,3.16-1.44,4.88-1.8
			c0.01,0.05,0,0.12,0.03,0.16c0.01,0.03,0.08,0.03,0.12,0.04c-0.06-0.06-0.12-0.11-0.18-0.17c0.11-0.07,0.22-0.16,0.34-0.2
			c2.27-0.76,4.39-1.92,6.74-2.47c0.39-0.09,0.77-0.22,1.13-0.38c2.6-1.2,5.4-1.78,8.08-2.73c0.62-0.22,1.33-0.24,1.92-0.52
			c1.81-0.86,3.65-1.63,5.56-2.22c0.57-0.18,1.11-0.46,1.64-0.73c1.72-0.89,3.58-1.37,5.39-1.99c1.74-0.6,3.7-0.46,5.25-1.64
			c0.04-0.03,0.14,0,0.2-0.02c0.62-0.22,1.24-0.46,1.87-0.67c0.56-0.19,1.14-0.35,1.71-0.52l0.09,0.09l-0.13-0.05
			c1.62-0.6,3.27-1.14,4.87-1.81c1.85-0.78,3.58-1.83,5.6-2.17c0.06-0.01,0.15-0.02,0.19-0.06c0.72-0.73,1.69-0.72,2.61-0.85
			c0.46-0.07,0.93-0.17,1.37-0.32c2.53-0.87,5.09-1.61,7.74-2.02c0.26-0.04,0.51-0.16,0.76-0.25c1-0.39,1.98-0.81,2.99-1.16
			c2.57-0.91,5.02-2.12,7.63-2.98c1.64-0.54,3.21-1.3,4.93-1.62c0.9-0.17,1.76-0.61,2.63-0.95c0.99-0.4,1.95-0.86,2.95-1.24
			c0.75-0.28,1.58-0.36,2.29-0.71c1.74-0.85,3.45-1.76,5.12-2.74c0.62-0.36,1.15-0.93,1.59-1.51c1.1-1.44,0.99-3.38-0.18-4.78
			c-0.3-0.36-0.59-0.74-0.95-1.02c-1.84-1.44-3.68-2.89-5.58-4.26c-0.64-0.46-1.42-0.73-2.17-1.01c-0.62-0.22-1.25,0.12-1.38,0.76
			c-0.18,0.9-0.86,1.69-0.56,2.7c0.04,0.13-0.12,0.4-0.26,0.5c-0.47,0.33-0.68,0.78-0.87,1.3c-0.15,0.43-0.44,0.82-0.73,1.18
			c-0.72,0.88-1.55,1.66-2.47,2.34c-1.83,1.36-3.89,2.35-5.88,3.42c-2.23,1.2-4.66,2.03-6.67,3.63c-0.15,0.12-0.35,0.18-0.54,0.25
			c-2.16,0.87-4.38,1.6-6.52,2.52c-1.29,0.55-2.64,0.95-3.91,1.52c-2.56,1.15-5.32,1.71-7.9,2.8c-1.66,0.7-3.4,1.22-5.08,1.86
			c-2.37,0.9-4.74,1.81-7.23,2.37c-1.11,0.25-2.17,0.66-3.28,0.9c-1.3,0.27-2.46,1.05-3.84,1.05c-0.32,0-0.64,0.19-0.95,0.3
			c-1.77,0.6-3.51,1.3-5.32,1.78c-2.52,0.66-5,1.44-7.46,2.29c-1.58,0.54-3.23,0.91-4.74,1.6c-1.77,0.8-3.59,1.42-5.44,2
			c-0.5,0.16-1.02,0.3-1.5,0.51c-2.26,1.01-4.62,1.72-6.96,2.5c-1.58,0.52-3.2,0.93-4.69,1.72c-0.35,0.19-0.75,0.27-1.13,0.4
			c-2.28,0.75-4.62,1.3-6.74,2.49c-0.23,0.13-0.5,0.24-0.76,0.25c-1.64,0.08-3.1,0.79-4.61,1.3c-0.81,0.27-1.69,0.46-2.19,1.29
			c-0.04,0.07-0.27,0.12-0.31,0.08c-0.68-0.71-1.22-0.03-1.79,0.18c-0.31,0.12-0.6,0.39-0.91,0.4c-1.15,0.06-1.94,0.85-2.89,1.29
			c-0.96,0.44-1.98,0.75-2.96,1.13c-0.62,0.24-1.22,0.65-1.86,0.74c-1.62,0.21-2.9,1.38-4.53,1.51c-1.29,0.71-2.73,1.11-4.03,1.76
			c-2.7,1.34-5.41,2.63-8.31,3.47c-0.51,0.15-1,0.33-1.49,0.51c-1.25,0.45-2.59,0.75-3.71,1.42c-1.06,0.63-2.2,0.93-3.3,1.39
			c-0.55,0.23-1.13,0.39-1.68,0.62c-2.59,1.07-5.17,2.18-7.78,3.21c-1.43,0.56-2.92,0.95-4.35,1.5c-1.62,0.63-3.22,1.29-4.86,1.86
			c-1.82,0.64-3.67,1.23-5.34,2.25c-0.27,0.17-0.61,0.24-0.93,0.31c-1.5,0.31-3.02,0.56-4.23,1.66c-0.13,0.12-0.37,0.2-0.55,0.18
			c-0.78-0.06-1.43,0.31-2.11,0.57c-1.18,0.46-2.33,1-3.52,1.44c-1.25,0.45-2.59,0.6-3.78,1.28c-0.8,0.46-1.69,0.8-2.57,1.1
			c-2.07,0.72-4.15,1.44-6.25,2.06c-2.56,0.75-5.05,1.68-7.53,2.64c-0.74,0.29-1.52,0.49-2.26,0.78c-1.99,0.77-3.98,1.54-5.95,2.36
			c-1.97,0.83-3.87,1.83-5.87,2.55c-1.33,0.48-2.59,1.06-3.88,1.62c-1.65,0.72-3.3,1.46-4.98,2.11c-2.68,1.03-5.41,1.91-8.07,3
			c-2.72,1.11-5.48,2.06-8.27,2.98c-0.76,0.25-1.56,0.37-2.29,0.68c-1.16,0.48-2.28,1.07-3.42,1.62
			C451.84,640.33,451.71,640.36,451.59,640.68z M650.99,561.05l0.11,0.1l-0.14-0.06c0.38-0.12,0.75-0.3,1.13-0.35
			c2.27-0.3,4.4-1.15,6.54-1.86c2.47-0.81,4.86-1.83,7.4-2.44c1.36-0.33,2.68-0.81,4.02-1.25c0.89-0.29,1.76-0.64,2.64-0.93
			c1.77-0.59,3.58-1.11,5.33-1.75c2.65-0.98,5.07-2.38,7.35-4.04c0.97-0.71,1.88-1.43,2.56-2.48c0.44-0.69,0.85-1.31,0.97-2.13
			c0.13-0.86,0.27-1.72,0.52-2.55c0.49-1.61,0.27-3.16-0.15-4.73c-0.42-1.55-0.85-3.09-1.16-4.66c-0.44-2.24-2.14-3.29-4.24-2.49
			c-0.12,0.05-0.22,0.17-0.34,0.21c-1.22,0.32-2.35,0.91-3.66,0.94c-0.85,0.02-1.72,0.3-2.53,0.59c-1.58,0.57-3.2,0.93-4.85,1.19
			c-0.79,0.13-1.57,0.3-2.36,0.46c-0.99,0.21-1.99,0.32-2.97-0.04c-0.11-0.04-0.26-0.12-0.28-0.21c-0.02-0.08,0.09-0.26,0.18-0.3
			c0.73-0.32,1.48-0.6,2.2-0.93c1.15-0.52,2.29-1.1,3.44-1.62c2.94-1.3,5.9-2.54,8.82-3.88c1.08-0.5,2.07-1.21,3.08-1.86
			c0.41-0.26,0.67-0.68,0.6-1.2c-0.14-1.13-0.26-2.26-0.51-3.36c-0.19-0.85-1.07-1.13-1.69-1.6c-0.12-0.09-0.4-0.06-0.58,0
			c-0.44,0.14-0.87,0.34-1.31,0.5c-0.62,0.23-1.23,0.54-1.88,0.66c-3.21,0.62-6.25,1.91-9.49,2.39c-1.39,0.66-2.91,0.94-4.33,1.55
			c-2.51,1.08-5.11,1.95-7.67,2.9c-0.75,0.28-1.52,0.51-2.27,0.78c-1.76,0.64-3.5,1.34-5.27,1.92c-2.23,0.72-4.49,1.32-6.72,2.03
			c-2.61,0.82-5.2,1.7-7.8,2.54c-0.83,0.27-1.66,0.52-2.48,0.79c-2.09,0.68-4.21,1.28-6.28,2.01c-2.39,0.84-4.85,1.49-7.28,2.21
			c-1.09,0.32-2.18,0.63-3.28,0.92c-0.31,0.08-0.64,0.06-0.97,0.08c-0.39,0.02-0.79,0.02-1.18,0.07c-0.93,0.12-1.82,0.33-2.72,0.63
			c-1,0.34-2.04,0.57-3.12,0.34l0.04,0.04c0.4-0.68,1.09-0.94,1.76-1.23c1.23-0.53,2.46-1.05,3.7-1.56c0.8-0.33,1.6-0.67,2.41-0.98
			c1.55-0.59,3.11-1.17,4.67-1.75c1.56-0.58,3.12-1.18,4.69-1.74c1.51-0.54,3.04-1,4.55-1.55c1.24-0.45,2.42-1.09,3.69-1.46
			c0.97-0.28,1.89-0.64,2.82-1.01c1.48-0.61,2.96-1.22,4.45-1.81c0.62-0.24,1.26-0.45,1.9-0.64c0.57-0.17,1.18-0.45,1.74-0.38
			c0.81,0.09,1.13-0.63,1.79-0.78c2.29-0.51,4.4-1.55,6.54-2.43c2.78-1.15,5.65-2.03,8.48-3.02c1.63-0.57,3.21-1.25,4.88-1.72
			c1.34-0.38,2.61-1.04,3.94-1.45c3.32-1.01,6.48-2.46,9.79-3.51c0.5-0.16,1.01-0.4,1.41-0.73c0.46-0.38,0.85-0.82,1.48-0.96
			c0.19-0.04,0.46-0.38,0.46-0.59c0-1.39,0.38-2.74,0.17-4.18c-0.49-3.37-0.89-6.76-0.95-10.17c-0.01-0.53-0.13-1.06-0.24-1.58
			c-0.12-0.56-0.49-0.93-1.02-1.15c-0.63-0.26-1.24-0.42-1.94-0.17c-0.94,0.34-1.93,0.56-2.87,0.89c-2.71,0.95-5.42,1.89-8.24,2.47
			c-0.77,0.16-1.51,0.51-2.26,0.77c-0.38,0.13-0.76,0.28-1.16,0.34c-2.7,0.44-5.27,1.45-7.99,1.81c-0.59,0.08-1.17,0.26-1.75,0.38
			c-0.09,0.02-0.21-0.1-0.32-0.15c0.03-0.06,0.05-0.13,0.1-0.17c0.43-0.41,0.79-0.97,1.3-1.21c1.38-0.63,2.59-1.57,4.05-2.04
			c0.89-0.29,1.72-0.72,2.58-1.09c1.6-0.68,3.18-1.41,4.8-2.03c1.37-0.52,2.81-0.85,4.18-1.37c2.75-1.04,5.46-2.16,8.21-3.21
			c0.97-0.37,1.61-1.05,1.73-2.01c0.12-0.98-0.01-1.99-0.07-2.99c-0.01-0.1-0.29-0.24-0.46-0.26c-0.19-0.03-0.41,0.02-0.59,0.09
			c-0.67,0.27-1.23,0.73-2.04,0.74c-0.71,0.01-1.41,0.33-2.12,0.5c-1.04,0.26-2.08,0.48-3.07,0.9c-0.72,0.31-1.54,0.47-2.33,0.54
			c-1.01,0.09-1.99,0.24-2.94,0.57c-0.44,0.15-0.9,0.23-1.36,0.3c-1.78,0.26-3.59,0.44-5.27,1.17c-0.18,0.08-0.39,0.11-0.59,0.13
			c-2.69,0.3-5.16,1.34-7.69,2.2c-1.33,0.45-2.58,1.14-4.05,1.01c-0.25-0.02-0.54,0.05-0.78,0.15c-1.19,0.52-2.45,0.66-3.73,0.66
			c-0.39,0-0.8,0.09-1.18,0.2c-2.37,0.69-4.71,1.5-7.13,2c-0.32,0.07-0.64,0.18-0.95,0.3c-1.11,0.43-2.2,0.94-3.34,1.29
			c-1.14,0.35-2.34,0.54-3.51,0.78c-0.32,0.07-0.65,0.11-0.97,0.08c-0.17-0.02,0.17-0.54,0.68-0.8c0.59-0.31,1.21-0.58,1.82-0.83
			c2.41-0.99,4.83-1.96,7.23-2.96c2.03-0.85,4.05-1.75,6.21-2.22c0.72-0.16,1.45-0.28,2.14-0.52c3.34-1.16,6.86-1.72,10.11-3.19
			c1.14-0.52,2.37-0.86,3.55-1.31c1.37-0.53,2.77-0.98,4.15-1.49c1.43-0.53,2.79-1.25,4.32-1.5c0.2-0.03,0.39-0.11,0.57-0.19
			c1.28-0.58,2.53-1.22,3.84-1.73c1.74-0.69,3.49-1.36,5.29-1.88c1.5-0.43,2.87-1.09,4.21-1.85c0.64-0.36,0.94-0.82,0.95-1.61
			c0.03-2.33,0.09-4.67,0.28-6.99c0.15-1.86,0.5-3.71,0.78-5.56c0.08-0.53,0.21-1.05,0.28-1.58c0.04-0.26-0.35-0.65-0.65-0.66
			c-0.26-0.01-0.55-0.05-0.79,0.03c-1.78,0.56-3.61,1.01-5.31,1.75c-1.91,0.83-3.94,1.23-5.89,1.91c-2.65,0.91-5.48,1.19-8.11,2.22
			c-1.06,0.41-2.15,0.74-3.23,1.07c-0.7,0.21-1.42,0.35-2.13,0.56c-0.96,0.28-1.91,0.61-2.87,0.89c-0.96,0.28-1.94,0.52-2.91,0.77
			c-1.03,0.27-2.07,0.53-3.11,0.8c-1.81,0.46-3.71,0.48-5.47,1.19c-0.73,0.29-1.55,0.36-2.33,0.53c-0.39,0.08-0.82,0.09-1.16,0.27
			c-1.07,0.56-2.2,0.48-3.34,0.42c-0.11-0.01-0.29-0.11-0.29-0.18c0-0.11,0.08-0.28,0.18-0.32c2.35-1.13,4.66-2.35,7.06-3.32
			c2.53-1.02,5.16-1.81,7.75-2.69c4.24-1.45,8.25-3.48,12.46-5.01c1.56-0.57,3.06-1.31,4.68-1.71c0.39-0.1,0.79-0.23,1.12-0.44
			c1.54-0.99,3.25-1.53,5.02-1.95c0.97-0.23,1.9-0.62,2.86-0.92c1.53-0.49,3.04-1.03,4.43-1.85c0.17-0.1,0.37-0.23,0.55-0.23
			c1.3,0.03,1.82-0.83,2.34-1.85c0.37-0.73,0.7-1.41,0.72-2.25c0.02-0.73,0.15-1.46,0.31-2.18c0.15-0.65,0.16-1.27,0.09-1.95
			c-0.13-1.25-0.15-2.5,0.23-3.77c0.36-1.19,0.56-2.43,0.22-3.75c-0.24-0.95-0.67-1.58-1.53-1.94c-1.05-0.44-2.09-0.91-3.17-1.26
			c-0.48-0.16-1.07-0.15-1.57-0.06c-1.05,0.19-2.08,0.48-3.12,0.75c-1.61,0.43-3.19,0.99-4.82,1.3c-3.96,0.75-7.73,2.11-11.53,3.36
			c-1.46,0.48-2.9,1.03-4.33,1.58c-1.31,0.51-2.59,1.09-3.89,1.6c-1.12,0.44-2.24,0.91-3.4,1.21c-0.91,0.24-1.77,0.57-2.64,0.92
			c-2.73,1.1-5.51,2.05-8.36,2.79c-1.74,0.45-3.49,0.88-5.23,1.37c-1.93,0.55-3.84,1.14-5.76,1.74c-1.4,0.43-2.82,0.84-4.18,1.36
			c-2.06,0.79-4.09,1.66-6.12,2.51c-1.35,0.56-2.68,1.21-4.05,1.71c-3.51,1.28-7.04,2.51-10.57,3.75c-1.45,0.51-2.89,1.07-4.36,1.47
			c-2.52,0.68-4.97,1.5-7.38,2.5c-2.21,0.91-4.52,1.56-6.76,2.43c-1.92,0.75-3.91,1.34-5.9,1.88c-0.72,0.19-1.39,0.44-2.05,0.74
			c-0.49,0.22-0.99,0.41-1.5,0.58c-1.65,0.55-3.32,1.01-4.94,1.64c-3.61,1.4-7.26,2.7-10.97,3.82c-1.97,0.6-3.89,1.4-5.81,2.13
			c-2.07,0.78-4.19,1.38-6.28,2.09c-3.35,1.14-6.75,2.15-10.13,3.21c-0.06,0.02-0.13,0.04-0.19,0.07c-2.02,0.7-3.99,1.52-6.02,2.18
			c-3.3,1.06-6.55,2.3-9.82,3.46c-1.89,0.67-3.78,1.34-5.65,2.05c-0.94,0.35-1.84,0.8-2.77,1.17c-1.49,0.59-3.03,1.04-4.52,1.63
			c-1.04,0.42-2.1,0.82-3.16,1.2c-1.07,0.38-2.17,0.67-3.25,1.04c-1.25,0.42-2.45,0.93-3.8,1.11c-1.23,0.16-2.5,0.47-3.61,1.14
			c-0.22,0.13-0.49,0.2-0.74,0.27c-1.21,0.33-2.44,0.62-3.64,0.99c-2.61,0.82-5.22,1.66-7.81,2.53c-1.01,0.34-2.08,0.63-2.94,1.21
			c-0.82,0.56-1.68,0.84-2.59,0.94c-1.36,0.14-2.57,0.69-3.82,1.15c-0.63,0.23-1.21,0.58-1.84,0.79c-2.47,0.83-4.87,1.84-7.26,2.87
			c-0.67,0.29-1.37,0.53-2.06,0.78c-1.76,0.64-3.56,1.18-5.26,1.94c-1.76,0.78-3.58,1.42-5.37,2.12c-2.36,0.92-4.73,1.84-7.11,2.74
			c-0.51,0.19-1.01,0.33-1.24,0.91c-0.04,0.11-0.37,0.22-0.48,0.16c-0.8-0.41-1.42,0.13-2.06,0.39c-0.99,0.4-1.94,0.9-2.91,1.33
			c-1.1,0.48-2.21,0.96-3.33,1.4c-2.05,0.8-4.03,1.77-6.16,2.38c-2.12,0.61-4.19,1.4-6.22,2.26c-2.95,1.26-5.84,2.67-8.75,4
			c-1.15,0.53-2.39,0.92-3.47,1.57c-1.56,0.94-3.24,1.58-4.92,2.23c-0.87,0.34-1.73,0.71-2.52,1.19c-0.69,0.42-1.37,0.81-2.09,1.17
			c-2.45,1.22-4.84,2.55-7.28,3.77c-1.48,0.74-2.88,1.68-4.57,1.95c-0.26,0.04-0.52,0.15-0.75,0.29c-1.59,0.98-3.27,1.87-4.74,3
			c-1.59,1.22-3.15,2.47-4.8,3.6c-0.49,0.34-0.9,0.8-1.33,1.21c-0.38,0.37-0.71,0.8-1.13,1.13c-1.06,0.84-1.88,1.89-2.75,2.9
			c-0.74,0.86-1.44,1.76-2.21,2.59c-1.56,1.68-2.73,3.64-3.89,5.59c-0.98,1.66-1.72,3.46-2.65,5.15c-0.97,1.76-1.81,3.57-2.54,5.44
			c-0.17,0.43-0.45,0.82-0.63,1.25c-0.21,0.49-0.46,0.98-0.54,1.5c-0.24,1.53-0.77,2.96-1.32,4.39c-0.24,0.62-0.45,1.29-0.84,1.81
			c-0.49,0.68-0.1,1.45-0.39,2.13c-0.16,0.37-0.26,0.76-0.36,1.15c-0.08,0.32-0.15,0.65-0.18,0.98c-0.07,0.84,0.53,1.6,1.38,1.66
			c0.45,0.03,0.92-0.07,1.38-0.15c2.68-0.49,5.32-1.19,7.96-1.86c2.65-0.68,5.3-1.39,7.71-2.78c0.45-0.26,1-0.36,1.52-0.47
			c1.37-0.3,2.77-0.49,4.11-0.88c1.39-0.4,2.72-1.02,4.11-1.46c1.65-0.52,3.32-0.98,5.05-1.14c0.62-0.06,1.15-0.16,1.62-0.64
			c0.24-0.25,0.78-0.47,1.06-0.37c0.44,0.17,0.68,0.19,1.01-0.17c0.52-0.57,1.3-0.75,2-0.82c2.15-0.22,4.12-1.04,6.17-1.59
			c1.73-0.47,3.42-1.12,5.23-1.32c0.67-0.07,1.29-0.28,1.87-0.67c0.43-0.29,0.96-0.47,1.47-0.61c1.29-0.36,2.6-0.63,3.88-1
			c3.91-1.11,7.64-2.79,11.6-3.77c2.44-1.13,5.04-1.75,7.64-2.37c2.47-0.59,4.79-1.63,7.24-2.29c2.32-0.63,4.59-1.45,6.87-2.2
			c2.73-0.89,5.5-1.7,8.19-2.72c2.51-0.95,5.09-1.63,7.7-2.17c1.37-0.29,2.78-0.41,4.17-0.6c0.12-0.02,0.25,0.05,0.38,0.08
			c-0.12,0.14-0.2,0.35-0.35,0.42c-0.61,0.27-1.24,0.5-1.86,0.74c-0.68,0.27-1.38,0.49-2.05,0.81c-2.11,1-4.22,2.01-6.31,3.06
			c-2.03,1.02-4.13,1.83-6.28,2.55c-1.27,0.42-2.57,0.73-3.71,1.49c-0.21,0.14-0.49,0.19-0.75,0.27c-2.03,0.65-4.05,1.31-6.08,1.95
			c-0.76,0.24-1.55,0.42-2.29,0.71c-2,0.75-3.97,1.56-5.97,2.32c-1.56,0.59-3.11,1.28-4.73,1.66c-1.7,0.4-3.13,1.58-4.93,1.63
			c-0.12,0-0.27,0.07-0.36,0.16c-0.64,0.67-1.53,0.82-2.34,1.1c-4.16,1.45-8.32,2.89-12.51,4.22c-2.55,0.8-5.09,1.64-7.74,2.09
			c-1.38,0.24-2.78,0.47-4.13,0.82c-2.52,0.66-5.02,1.41-7.53,2.13c-1.47,0.43-2.94,0.88-4.4,1.32c-0.57,0.17-1.15,0.35-1.71,0.55
			c-2.51,0.9-5.01,1.84-7.54,2.69c-2.78,0.94-5.62,1.72-8.31,2.93c-1.52,0.68-3.06,1.37-4.64,1.87c-1.3,0.41-2.49,1.02-3.61,1.73
			c-1.51,0.95-2.61,2.39-2.97,4.14c-0.39,1.88-0.6,3.82-0.37,5.77c0.09,0.75,0.34,1.42,0.64,2.1c0.34,0.77,0.94,1.17,1.72,1.17
			c0.72,0,1.47-0.1,2.17-0.29c1.54-0.43,3.03-1.04,4.59-1.41c1.22-0.29,2.41-0.67,3.62-1.03c2.17-0.65,4.36-1.24,6.55-1.85
			c1.15-0.32,2.31-0.64,3.46-0.98c0.89-0.26,1.76-0.55,2.65-0.83c0.95-0.3,1.92-0.55,2.85-0.91c1.31-0.51,2.58-1.1,3.88-1.63
			c0.24-0.1,0.52-0.16,0.77-0.16c1.37,0.01,2.64-0.49,3.89-0.93c3.49-1.23,6.91-2.67,10.41-3.88c2.7-0.93,5.28-2.18,7.97-3.15
			c0.38-0.14,0.74-0.32,1.11-0.47c0.99-0.4,1.98-0.79,2.98-1.18c0.81-0.31,1.63-0.61,2.44-0.92c0.99-0.39,1.98-0.79,2.97-1.17
			c0.43-0.17,0.9-0.26,1.31-0.47c2.28-1.13,4.72-1.86,7.03-2.91c0.6-0.27,1.25-0.49,1.9-0.64c0.79-0.18,1.48-0.53,2.18-0.94
			c1.73-1.02,3.65-1.63,5.55-2.19c1.41-0.41,2.78-0.85,4.11-1.45c0.49-0.22,0.98-0.51,1.49-0.58c1.07-0.14,2.07-0.45,3.04-0.94
			c0.77-0.38,1.6-0.65,2.42-0.94c0.94-0.33,1.9-0.63,2.85-0.94c0.89-0.3,1.78-0.58,2.66-0.9c0.92-0.33,1.94-0.4,2.75-1.03
			c1.34-0.12,2.46-0.92,3.78-1.2c1.95-0.42,3.83-1.14,5.75-1.69c1.15-0.33,2.26-0.72,3.36-1.24c1.13-0.54,2.43-0.71,3.64-1.07
			c0.32-0.09,0.6-0.3,0.91-0.43c1.65-0.71,3.25-1.58,5.11-1.71c0.26-0.02,0.5-0.18,0.76-0.26c1.46-0.48,2.92-0.96,4.38-1.42
			c1.46-0.46,2.94-0.89,4.4-1.34c1.6-0.49,3.19-0.99,4.78-1.49c0.57-0.18,1.16-0.34,1.7-0.59c2.19-1,4.44-1.86,6.78-2.45
			c0.58-0.15,1.17-0.3,1.72-0.53c2.33-0.98,4.73-1.8,7.05-2.82c2.92-1.28,5.94-2.4,9.12-2.96c0.26-0.05,0.53-0.14,0.73-0.29
			c0.91-0.72,2.03-1.01,3.06-1.48c1.64-0.75,3.47-1.02,5.03-1.96c1.48-0.16,2.82-0.75,4.17-1.32c1.23-0.51,2.5-0.93,3.74-1.41
			c1.31-0.5,2.58-1.1,3.91-1.54c1.76-0.58,3.5-1.23,5.33-1.61c1.95-0.41,3.9-0.96,5.76-1.68c2.43-0.95,4.89-1.81,7.4-2.54
			c1.54-0.45,3.11-0.8,4.65-1.24c1.41-0.41,2.81-0.87,4.21-1.32l-0.04-0.06c0.03,0.13,0.06,0.26,0.09,0.39
			c0.21,0.96,0.1,0.77-0.63,1.12c-2.04,1-4.18,1.72-6.31,2.5c-3.57,1.31-7.04,2.87-10.66,4.04c-0.64,0.2-1.23,0.56-1.87,0.72
			c-2.28,0.55-4.23,2.01-6.58,2.36c-1.02,0.68-2.22,0.91-3.35,1.32c-1.44,0.53-2.86,1.08-4.3,1.62c-0.81,0.31-1.61,0.65-2.43,0.94
			c-3.27,1.16-6.56,2.28-9.82,3.45c-1.7,0.61-3.37,1.3-5.05,1.94c-1.56,0.59-3.14,1.13-4.7,1.73c-3.12,1.19-6.22,2.4-9.37,3.51
			c-3.59,1.27-7.11,2.72-10.73,3.91c-0.38,0.13-0.74,0.32-1.11,0.47c-0.43,0.17-0.87,0.35-1.31,0.5c-1.58,0.54-3.18,1.04-4.75,1.6
			c-3.27,1.18-6.51,2.42-9.79,3.57c-1.45,0.51-2.93,0.92-4.23,1.78c-0.27,0.18-0.6,0.3-0.92,0.39c-1.73,0.49-3.49,0.93-5.07,1.86
			c-0.11,0.07-0.25,0.09-0.38,0.12c-3.01,0.88-5.91,2.09-8.93,2.93c-0.83,0.23-1.63,0.59-2.44,0.91c-1,0.39-1.98,0.81-2.98,1.18
			c-0.88,0.33-1.78,0.57-2.65,0.92c-2.48,0.99-4.99,1.91-7.6,2.52c-0.26,0.06-0.52,0.16-0.74,0.3c-0.69,0.43-1.41,0.71-2.21,0.91
			c-1.03,0.25-2.05,0.62-3.01,1.06c-2.61,1.2-5.38,1.95-8.01,3.11c-1.51,0.66-3.13,1.11-4.69,1.7c-2.56,0.97-5.12,1.9-7.69,2.85
			c-0.31,0.12-0.63,0.24-0.95,0.33c-1.93,0.56-3.79,1.3-5.67,1.99c-1.37,0.5-2.66,1.19-4.1,1.57c-2.25,0.6-4.42,1.5-6.63,2.26
			c-2.27,0.78-4.57,1.5-6.73,2.59c-0.47,0.24-1,0.37-1.51,0.55c-0.69,0.24-1.39,0.47-2.08,0.73c-2.13,0.79-4.19,1.76-6.46,2.14
			c-0.84,0.14-1.68,0.46-2.46,0.84c-2.71,1.31-5.56,2.26-8.33,3.43c-1.11,0.47-2.31,0.68-3.36,1.23c-0.55,0.28-1.09,0.48-1.67,0.61
			c-0.32,0.07-0.63,0.18-0.94,0.29c-1,0.37-1.98,0.84-3.01,1.09c-1.51,0.36-2.48,1.23-2.97,2.65c-0.21,0.62-0.35,1.29-0.4,1.95
			c-0.18,2.21,0.11,4.39,0.44,6.57c0.03,0.2,0.01,0.42,0.1,0.58c0.61,1.05,0.58,2.32,1.26,3.36c0.7,1.07,0.59,2.45,1.12,3.61
			c0.11,0.24,0.15,0.53,0.3,0.74c1.13,1.58,0.67,1.73,2.98,1.82c0.82,0.03,1.59-0.03,2.37-0.3c0.95-0.33,1.9-0.66,2.87-0.89
			c2.28-0.53,4.48-1.33,6.72-1.98c1.98-0.58,4.02-0.96,6.05-1.36c0.65-0.13,1.31-0.18,1.96-0.31c2.09-0.41,4.25-0.45,6.27-1.27
			c1.76,0.05,3.34-0.84,5.09-0.96c1.72-0.12,3.43-0.51,5.15-0.78c0.03,0.03,0.07,0.05,0.1,0.08c-0.05-0.01-0.09-0.03-0.14-0.04
			c0.72-0.12,1.43-0.26,2.15-0.36c0.08-0.01,0.19,0.11,0.28,0.18c0.01,0.01-0.04,0.13-0.09,0.16c-0.22,0.14-0.45,0.3-0.69,0.41
			c-2.57,1.11-5.17,2.2-7.85,2.97c-1.79,0.51-3.54,1.15-5.25,1.83c-1.98,0.79-3.85,1.84-5.86,2.58c-1.81,0.67-3.59,1.43-5.41,2.06
			c-2.02,0.7-4.07,1.3-6.1,1.96c-0.25,0.08-0.5,0.18-0.74,0.31c-0.49,0.26-0.6,0.74-0.26,1.16c0.41,0.52,0.84,1.04,1.25,1.56
			c-0.05,0.09-0.09,0.18-0.14,0.27c0.1-0.04,0.19-0.08,0.29-0.12c0.67,0.43,1.35,0.86,2.02,1.3c1.18,0.77,2.33,1.57,3.53,2.3
			c1.19,0.73,2.39,1.43,3.64,2.06c0.44,0.22,1.01,0.15,1.52,0.24c0.99,0.17,1.97,0.49,2.96,0.53c2.13,0.07,4.27,0.05,6.41-0.02
			c1.53-0.05,3.06-0.22,4.59-0.36c0.73-0.06,1.46-0.14,2.19-0.25c2.1-0.32,4.17-0.92,6.34-0.77c0.25,0.02,0.56-0.05,0.77-0.18
			c0.78-0.49,1.68-0.45,2.52-0.61c2.62-0.49,5.27-0.79,7.79-1.72c0.3-0.11,0.66-0.09,0.99-0.13c1.66-0.19,3.32-0.4,4.92-0.93
			c1.21-0.4,2.41-0.87,3.65-1.07c1.6-0.26,3.12-0.74,4.63-1.29c1.08-0.39,2.14-0.75,3.29-0.87c0.33-0.03,0.66-0.12,0.98-0.23
			c1.33-0.45,2.65-0.9,3.97-1.37c0.44-0.16,0.89-0.32,1.29-0.55c0.77-0.45,1.59-0.68,2.45-0.87c0.59-0.13,1.19-0.24,1.74-0.47
			c1.67-0.7,3.49-0.94,5.09-1.82c0.12-0.06,0.25-0.11,0.38-0.13c2.05-0.37,3.95-1.22,5.88-1.97c1.04-0.41,2.1-0.91,3.27-0.76
			c0.28,0.04,0.33-0.12,0.47-0.24c0.25-0.21,0.51-0.46,0.8-0.56c2.28-0.74,4.57-1.44,6.72-2.52c0.18-0.09,0.38-0.11,0.57-0.18
			c0.71-0.25,1.5-0.09,2.15-0.29c0.72-0.22,1.29-0.91,2.08-1.12c0.51-0.13,1.1-0.19,1.5-0.49c0.81-0.61,1.69-0.71,2.63-0.81
			c0.59-0.06,1.19-0.24,1.72-0.51c1.38-0.7,2.8-1.26,4.33-1.51c0.39-0.06,0.81-0.2,1.11-0.44c0.66-0.53,1.43-0.66,2.22-0.84
			c0.84-0.19,1.66-0.51,2.47-0.83c1.18-0.46,2.35-0.95,3.63-1.09c0.25-0.03,0.49-0.16,0.73-0.26c0.68-0.28,1.34-0.58,2.02-0.85
			c1.74-0.68,3.5-1.31,5.23-2.02c1.79-0.74,3.55-1.54,5.33-2.32c1.28-0.56,2.56-1.15,3.86-1.68c1.49-0.6,3-1.12,4.49-1.71
			c2.12-0.82,4.22-1.68,6.34-2.5c2.18-0.85,4.38-1.64,6.55-2.51c3.11-1.23,6.18-2.54,9.3-3.74c3.92-1.51,7.88-2.94,11.81-4.42
			c0.76-0.29,1.49-0.55,2.26-0.05c0.26,0.16,0.62,0.05,0.67-0.21c0.18-0.86,0.79-1.15,1.52-1.39c2.54-0.84,5.07-1.67,7.6-2.55
			c0.75-0.26,1.48-0.5,2.27-0.66c0.82-0.17,1.56-0.72,2.34-1.1c0.18-0.09,0.38-0.12,0.57-0.19c2.35-0.95,4.7-1.89,7.05-2.85
			c0.99-0.4,1.96-0.84,2.94-1.26c0.92-0.4,1.84-0.78,2.75-1.19c2.25-1.01,4.44-2.13,6.76-2.96c0.63-0.22,1.32-0.35,1.86-0.71
			c0.69-0.45,1.44-0.7,2.2-0.9c1.42-0.37,2.76-0.95,4.12-1.5c1.61-0.65,3.24-1.22,4.87-1.81c0.94-0.34,1.87-0.76,2.84-0.96
			c2.18-0.44,4.17-1.37,6.23-2.12c1.68-0.61,3.45-0.99,5.15-1.62c2.63-0.97,5.31-1.78,7.97-2.64c2.61-0.85,5.21-1.7,7.83-2.5
			c1-0.31,2-0.59,2.95-1.07c0.82-0.41,1.76-0.59,2.65-0.87c0.19-0.06,0.43-0.03,0.58-0.13c1.36-0.93,3-1.09,4.49-1.68
			c2.11-0.84,4.28-1.51,6.42-2.27c0.4-0.14,0.77-0.18,1.16,0.02c0.04,0.04,0.08,0.08,0.12,0.11c-0.06-0.02-0.12-0.04-0.17-0.06
			c0.25-0.43,0.66-0.62,1.12-0.77C646.03,561.93,648.42,561.09,650.99,561.05z M193.14,359.33c0.74,1.03,1.57,1.98,2.56,2.78
			c0.51,0.42,0.96,0.94,1.35,1.47c0.75,1.03,1.53,2,2.57,2.77c0.31,0.23,0.6,0.57,0.73,0.92c0.29,0.8,0.87,1.32,1.52,1.8
			c1.02,0.76,2.06,1.49,2.75,2.6c0.16,0.26,0.53,0.39,0.78,0.61c0.7,0.61,1.5,1.15,2.06,1.88c0.55,0.71,1.21,1.21,1.92,1.7
			c0.71,0.49,1.48,0.96,2.04,1.59c1.41,1.6,2.85,3.17,4.45,4.59c0.54,0.48,1.07,1.01,1.5,1.59c0.64,0.87,1.29,1.7,2.22,2.28
			c0.32,0.2,0.54,0.58,0.79,0.89c0.25,0.31,0.42,0.76,0.73,0.93c1.1,0.61,1.82,1.53,2.43,2.58c0.2,0.34,0.52,0.6,0.79,0.89
			c0.73,0.78,1.48,1.53,2.18,2.34c0.91,1.06,1.69,2.23,2.9,3c0.33,0.21,0.59,0.54,0.83,0.86c1.6,2.15,3.52,4.02,5.38,5.92
			c1.44,1.47,2.93,2.89,4.36,4.38c2.53,2.65,5,5.37,7.68,7.88c1.7,1.59,3.05,3.54,4.96,4.93c0.16,0.11,0.25,0.31,0.38,0.46
			c2.11,2.58,4.44,4.96,6.97,7.14c1.46,1.26,2.63,2.83,4.15,4.04c0.15,0.12,0.25,0.31,0.39,0.46c1.39,1.52,2.79,3.04,4.18,4.56
			c2.07,2.27,4.36,4.33,6.4,6.64c1.11,1.25,2.37,2.37,3.5,3.59c1.36,1.46,2.92,2.7,4.3,4.15c1.14,1.2,2.45,2.26,3.54,3.52
			c1.09,1.26,2.38,2.32,3.3,3.73c0.17,0.26,0.5,0.42,0.77,0.62c0.26,0.2,0.6,0.35,0.78,0.61c1.25,1.74,2.86,3.16,4.32,4.71
			c0.32,0.34,0.58,0.75,0.94,1.03c0.76,0.58,1.38,1.26,1.92,2.03c0.49,0.69,1.12,1.13,1.95,1.31c0.39,0.09,0.77,0.26,1.16,0.31
			c0.76,0.09,1.39,0.46,2.01,0.86c0.39,0.25,0.75,0.58,1.17,0.77c1.83,0.83,3.17,2.26,4.32,3.81c1.1,1.49,2.49,2.81,3.1,4.64
			c0.04,0.12,0.12,0.24,0.2,0.34c0.75,0.89,1.23,1.9,1.37,3.07c0.06,0.47,0.24,0.94,0.66,1.2c0.94,0.58,1.48,1.54,2.23,2.3
			c1.5,1.52,3,3.04,4.45,4.61c2.09,2.26,4.24,4.46,6.71,6.3c1.77,1.33,3.44,2.77,5,4.32c1.94,1.93,3.77,3.97,5.73,5.89
			c1.33,1.3,2.7,2.58,3.9,4.02c1.2,1.44,2.44,2.84,3.76,4.17c1.59,1.59,2.85,3.54,4.98,4.55c0.23,0.11,0.36,0.39,0.56,0.57
			c0.94,0.85,1.84,1.74,2.84,2.52c1.21,0.95,2.81,1.22,4.02,2.18c0.79,0.05,1.59,0.08,2.38,0.14c0.33,0.02,0.66,0.08,0.99,0.13
			c1.25,0.2,2.51,0.39,3.76,0.6c0.56,0.09,1.01-0.08,1.51-0.35c1.56-0.84,2.92-2.13,4.82-2.28c0.11-0.01,0.21-0.14,0.32-0.21
			c1.15-0.82,2.44-1.34,3.72-1.9c2.69-1.19,5.32-2.51,8-3.71c2.38-1.06,4.65-2.4,7.17-3.14c1.55-0.45,3-1.09,4.35-1.98
			c0.33-0.21,0.74-0.29,1.11-0.43c1.48-0.59,3.02-1.09,4.43-1.83c0.96-0.5,1.95-0.85,2.95-1.22c0.62-0.23,1.23-0.51,1.84-0.78
			c0.3-0.13,0.58-0.37,0.9-0.44c2.04-0.46,3.79-1.61,5.72-2.33c0.87-0.33,1.76-0.64,2.64-0.96c0.56-0.2,1.14-0.37,1.69-0.6
			c1.11-0.46,2.18-1.04,3.31-1.42c1.01-0.33,1.98-0.75,3.05-0.96c1.1-0.22,2.14-0.73,3.19-1.14c0.43-0.17,0.83-0.54,1.26-0.58
			c1.37-0.12,2.58-0.62,3.78-1.24c0.52-0.27,1.14-0.41,1.73-0.49c1.33-0.18,2.47-0.99,3.82-1.08c0.35-0.02,0.64-0.47,1.01-0.58
			c1.53-0.46,3.03-0.97,4.45-1.71c0.4-0.21,0.91-0.2,1.36-0.31c0.52-0.12,1.11-0.15,1.54-0.43c1.1-0.73,2.39-0.86,3.57-1.29
			c0.69-0.25,1.45-0.27,2.14-0.5c1.64-0.56,3.25-1.18,4.88-1.77c1.82-0.67,3.61-1.47,5.47-1.98c4.7-1.29,9.27-3,13.94-4.37
			c0.7-0.21,1.42-0.39,2.11-0.63c3.09-1.07,6.17-2.16,9.26-3.22c1.33-0.46,2.69-0.81,3.99-1.32c1.3-0.51,2.69-0.69,3.98-1.27
			c1.7-0.76,3.53-1.2,5.29-1.81c0.88-0.31,1.71-0.81,2.61-1.01c2.41-0.56,4.68-1.55,7.02-2.32c2.48-0.81,4.94-1.69,7.4-2.54
			c0.63-0.22,1.26-0.42,1.88-0.66c1.49-0.58,2.94-1.32,4.48-1.71c1.17-0.3,2.33-0.65,3.42-1.1c2.91-1.19,5.95-1.99,8.94-2.91
			c3.64-1.13,7.26-2.28,10.86-3.51c2.47-0.85,4.92-1.75,7.41-2.51c4.6-1.4,9.11-3.06,13.68-4.53c2.15-0.69,4.28-1.48,6.42-2.22
			c2.32-0.81,4.61-1.72,6.92-2.57c0.31-0.12,0.62-0.26,0.92-0.39c0.93-0.38,1.84-0.79,2.78-1.13c3.83-1.38,7.67-2.72,11.49-4.11
			c3.64-1.33,7.26-2.72,10.88-4.09c1.13-0.42,2.28-0.79,3.36-1.3c2.85-1.32,5.87-2.21,8.74-3.49c1.71-0.76,3.56-1.13,5.23-2.02
			c0.78-0.42,1.66-0.82,2.66-0.69c0.35,0.05,0.88-0.11,1.1-0.37c0.66-0.79,1.59-0.95,2.45-1.29c1.43-0.57,2.87-1.11,4.31-1.65
			c1.13-0.42,2.25-0.86,3.4-1.21c1.85-0.57,3.73-1.02,5.58-1.6c3.12-0.98,6.23-2.02,9.34-3.04c0.32-0.1,0.63-0.22,0.94-0.36
			c3.1-1.41,6.26-2.68,9.48-3.82c2.14-0.75,4.23-1.64,6.33-2.49c0.62-0.25,1.21-0.56,1.82-0.84c0.66-0.3,1.27-0.64,2.05-0.71
			c0.6-0.06,1.14-0.63,1.73-0.93c0.29-0.15,0.64-0.19,0.95-0.31c2.07-0.75,4.15-1.5,6.21-2.27c1.5-0.56,2.99-1.15,4.49-1.72
			c1.62-0.61,3.25-1.21,4.88-1.81c0.37-0.14,0.75-0.28,1.13-0.36c0.85-0.19,1.64-0.5,2.41-0.94c0.92-0.53,1.94-0.89,2.92-1.31
			c0.37-0.16,0.79-0.2,1.13-0.4c1.12-0.65,2.37-0.89,3.61-1.15c0.58-0.12,1.17-0.29,1.71-0.53c2.17-0.96,3.12-3.71,1.86-5.73
			c-0.8-1.29-1.71-2.53-3.05-3.39c-0.9-0.57-1.68-1.32-2.5-2.01c-0.51-0.43-1-0.88-1.47-1.34c-1.88-1.82-4.23-3.03-6.15-4.79
			c-0.34-0.31-0.74-0.63-1.17-0.76c-0.68-0.22-1.16-0.69-1.64-1.12c-0.9-0.82-1.89-1.49-2.95-2.06c-2.24-1.2-4.32-2.68-6.3-4.24
			c-1.79-1.41-3.84-2.43-5.53-3.96c-0.59-0.53-1.34-0.88-1.94-1.39c-0.66-0.56-1.5-0.78-2.16-1.39c-0.81-0.75-1.94-1.15-2.71-2.02
			c-0.12-0.14-0.34-0.24-0.53-0.27c-0.65-0.09-1.05-0.54-1.51-0.92c-0.31-0.26-0.61-0.52-0.94-0.75c-2.21-1.5-4.44-2.98-6.65-4.49
			c-2.58-1.77-5.16-3.56-7.72-5.36c-1.53-1.08-3-2.23-4.53-3.3c-2.51-1.77-5.06-3.49-7.58-5.25c-1.37-0.96-2.69-1.98-4.08-2.91
			c-1.93-1.3-3.69-2.85-5.72-4c-0.23-0.13-0.39-0.37-0.6-0.52c-0.97-0.7-1.95-1.4-2.94-2.09c-0.38-0.27-0.8-0.49-1.18-0.76
			c-1.8-1.27-3.61-2.53-5.39-3.82c-1.46-1.05-2.89-2.14-4.35-3.2c-1.19-0.86-2.3-1.9-3.6-2.52c-2.26-1.07-4.15-2.66-6.2-4.01
			c-1.27-0.84-2.47-1.83-3.81-2.55c-0.85-0.45-1.44-1.2-2.27-1.6c-1.17-0.55-2.18-1.29-3.11-2.18c-0.34-0.32-0.75-0.55-1.14-0.81
			c-1-0.67-2.03-1.29-2.99-2.01c-0.43-0.32-0.83-0.63-1.3-0.9c-1.22-0.68-2.5-1.34-3.55-2.25c-1.83-1.59-3.92-2.8-5.76-4.35
			c-0.3-0.26-0.6-0.54-0.95-0.73c-2.4-1.34-4.45-3.17-6.83-4.56c-1.9-1.11-3.71-2.38-5.37-3.84c-0.2-0.18-0.42-0.35-0.67-0.44
			c-1.36-0.47-2.32-1.55-3.48-2.32c-0.72-0.48-1.5-0.89-2.18-1.42c-1.7-1.3-3.43-2.55-5.24-3.69c-0.28-0.17-0.52-0.43-0.71-0.7
			c-0.2-0.29-0.43-0.46-0.75-0.61c-1.66-0.75-3-1.96-4.44-3.04c-1.22-0.93-2.44-1.87-3.69-2.76c-0.42-0.3-0.96-0.42-1.42-0.68
			c-0.64-0.36-1.28-0.72-1.87-1.15c-1.46-1.05-2.89-2.14-4.34-3.21c-0.21-0.16-0.4-0.4-0.63-0.48c-1.32-0.43-2.24-1.43-3.28-2.26
			c-0.2-0.16-0.38-0.37-0.61-0.47c-1.28-0.56-2.45-1.3-3.48-2.26c-0.29-0.27-0.62-0.53-0.97-0.7c-1.4-0.66-2.65-1.55-3.85-2.51
			c-0.84-0.66-1.7-1.3-2.59-1.88c-0.67-0.44-1.4-0.79-2.12-1.14c-0.78-0.38-1.14-1.32-2.08-1.46c-1.05-0.9-2.04-1.87-3.35-2.41
			c-0.98-1.13-2.29-1.82-3.49-2.67c-2.44-1.72-4.85-3.49-7.39-5.06c-0.28-0.17-0.54-0.38-0.78-0.61c-1.09-1.09-2.39-1.87-3.71-2.63
			c-0.46-0.27-0.96-0.49-1.38-0.8c-1.86-1.4-3.97-2.42-5.68-4.03c-0.19-0.18-0.44-0.31-0.66-0.46c-1.84-1.21-3.7-2.39-5.51-3.64
			c-2.19-1.51-4.35-3.07-6.5-4.62c-0.42-0.31-0.82-0.63-1.14-1.1c-0.27-0.41-0.82-0.85-1.27-0.87c-0.92-0.04-1.48-0.65-2.06-1.11
			c-0.68-0.54-1.39-1.03-2.1-1.52c-0.56-0.38-1.1-0.72-1.42-1.37c-0.24-0.5-0.73-0.77-1.3-0.83c-0.53-0.06-1.06-0.12-1.42-0.61
			l0.1-0.08c0,0-0.06,0.12-0.06,0.12c-1.04-0.72-2.09-1.44-3.12-2.17c-0.76-0.54-1.5-1.11-2.25-1.66c-0.32-1.07-1.49-1.02-2.16-1.65
			c-0.68-0.63-1.48-1.14-2.23-1.7c-0.37-0.28-0.75-0.55-1.14-0.8c-1.39-0.91-2.81-1.78-4.18-2.72c-0.43-0.3-0.78-0.73-1.1-1.15
			c-0.25-0.33-0.49-0.58-0.91-0.73c-1.28-0.45-2.34-1.29-3.37-2.14c-0.99-0.82-2.04-1.49-3.19-2.05c-0.72-0.35-1.47-0.72-2.04-1.26
			c-0.82-0.78-1.83-1.05-2.8-1.49c-0.96-0.44-1.65-1.35-2.75-1.59c-0.52-0.11-1.03-0.31-1.5-0.55c-1.69-0.86-3.42-1.01-5.23-0.43
			c-0.76,0.24-1.56,0.4-2.35,0.5c-1.46,0.19-2.93,0.3-4.3,0.9c-2.42,0.22-4.61,1.27-6.92,1.87c-2,0.52-4.03,0.91-6.01,1.52
			c-0.95,0.29-1.92,0.45-2.84,0.91c-0.7,0.35-1.53,0.44-2.32,0.59c-1.11,0.21-2.25,0.29-3.3,0.77c-0.3,0.14-0.63,0.23-0.96,0.28
			c-2.99,0.44-5.89,1.16-8.66,2.37c-0.24,0.11-0.51,0.19-0.77,0.22c-1.81,0.19-3.5,0.81-5.24,1.31c-1.66,0.47-3.24,1.17-4.92,1.57
			c-0.97,0.22-1.86,0.89-2.82,0.96c-0.91,0.07-1.61,0.6-2.47,0.69c-0.91,0.09-1.67,0.61-2.52,0.88c-1.26,0.4-2.45,0.99-3.77,1.23
			c-0.4,0.07-0.77,0.1-1.16,0.1c-0.35,0-0.68,0.34-1.04,0.42c-1.23,0.29-2.47,0.52-3.63,1.08c-0.29,0.14-0.65,0.11-0.98,0.16
			c-0.39,0.07-0.8,0.11-1.18,0.22c-1.72,0.52-3.47,0.99-5.15,1.63c-1.96,0.75-4.05,0.87-6.02,1.49c-1.17-0.07-2.23,0.39-3.28,0.8
			c-1,0.39-1.96,0.83-3.05,0.88c-0.32,0.02-0.66,0.16-0.95,0.3c-1.38,0.69-2.96,0.84-4.28,1.68c-0.21,0.14-0.5,0.17-0.76,0.22
			c-2.57,0.43-4.99,1.51-7.61,1.74c-0.2,0.02-0.43,0.04-0.57,0.15c-0.78,0.64-1.77,0.54-2.66,0.81c-1.28,0.39-2.59,0.66-3.87,1.04
			c-2.11,0.63-4.21,1.27-6.4,1.61c-1.97,0.31-3.93,0.78-5.86,1.32c-2.12,0.59-4.19,1.35-6.29,2.03c-0.51,0.17-1.01,0.39-1.53,0.47
			c-3.1,0.47-6.15,1.14-9.05,2.35c-0.18,0.08-0.38,0.14-0.58,0.17c-2.97,0.55-5.74,1.78-8.62,2.62c-0.83,0.24-1.67,0.47-2.52,0.64
			c-0.59,0.11-1.13,0.23-1.7,0.48c-0.84,0.37-1.74,0.66-2.7,0.64c-0.25-0.01-0.56,0-0.75,0.14c-0.8,0.57-1.68,0.78-2.65,0.76
			c-0.25-0.01-0.52,0.12-0.76,0.21c-1.92,0.75-3.81,1.57-5.82,2.06c-1.42,0.35-2.81,0.85-4.21,1.26c-1.46,0.42-2.88,0.98-4.41,1.19
			c-0.9,0.12-1.72,0.74-2.7,0.63c-0.59,0.81-1.6,0.37-2.36,0.8c-2.52,1.44-5.39,1.91-8.1,2.83c-0.27,0.09-0.63-0.05-0.94-0.09
			l-0.08-0.09c0,0,0.12,0.06,0.12,0.06c-0.18,0.19-0.34,0.49-0.55,0.54c-0.58,0.12-1.18,0.12-1.77,0.18c-0.17,0.02-0.43,0-0.49,0.1
			c-0.33,0.54-0.91,0.51-1.4,0.66c-0.57,0.18-1.2,0.27-1.71,0.56c-0.95,0.53-1.94,0.88-3,1.09c-0.83,0.16-1.64,0.45-2.47,0.58
			c-0.93,0.15-1.67,0.75-2.55,0.98c-0.38,0.1-0.75,0.29-1.14,0.34c-0.52,0.07-1.12-0.11-1.56,0.09c-0.45,0.21-0.84,0.59-1.35,0.76
			c-0.25,0.08-0.5,0.2-0.75,0.28c-2.43,0.75-4.85,1.5-7.28,2.24c-0.51,0.16-1.05,0.23-1.54,0.43c-2.28,0.97-4.71,1.42-7.06,2.16
			c-1.34,0.42-2.69,0.77-4.03,1.19c-1.27,0.4-2.51,0.87-3.78,1.27c-0.63,0.2-1.31,0.27-1.95,0.47c-0.77,0.23-1.5,0.6-2.27,0.8
			c-0.77,0.2-1.57,0.26-2.36,0.39c-0.79,0.13-1.45,0.61-2.21,0.81c-0.19,0.05-0.41,0.03-0.59,0.09c-2.03,0.67-4.05,1.36-6.19,1.62
			c-0.06,0.01-0.12,0.05-0.19,0.07c-1.2,0.4-2.4,0.76-3.59,1.19c-1.18,0.43-2.52,0.33-3.59,1.1c-0.79-0.19-1.38,0.34-2.06,0.55
			c-0.44,0.14-0.91,0.19-1.37,0.27c-0.39,0.07-0.82,0.04-1.18,0.19c-1.78,0.78-3.77,0.88-5.55,1.71c-1.08,0.5-2.26,0.81-3.42,1.12
			c-2.91,0.78-5.7,1.88-8.53,2.89c-2.76,0.99-5.49,2.08-8.24,3.12c-0.31,0.12-0.65,0.16-0.96,0.27c-1.7,0.6-3.4,1.2-5.08,1.84
			c-0.56,0.21-1.05,0.61-1.62,0.79c-2.31,0.72-4.43,1.87-6.64,2.8c-1.22,0.51-2.1,1.41-3.01,2.29c-0.23,0.22-0.37,0.56-0.47,0.86
			c-0.6,1.95-0.04,3.78,1.08,5.3c1.25,1.7,2.51,3.45,4.15,4.84c0.45,0.39,0.85,0.86,1.2,1.35c0.44,0.61,0.97,1.12,1.59,1.5
			c1.51,0.93,2.39,2.48,3.59,3.71c0.72,0.74,1.18,1.73,2.07,2.37c0.47,0.34,0.8,0.89,1.19,1.35c0.26,0.31,0.45,0.69,0.76,0.92
			c1.44,1.09,2.42,2.67,4.01,3.6c0.56,0.33,0.97,0.91,1.44,1.39c0.92,0.96,1.84,1.93,2.93,2.71c1.19,0.86,2.18,1.95,3.42,2.75
			c0.21,0.14,0.43,0.35,0.53,0.58c0.45,1.06,1.27,1.68,2.26,2.17c0.29,0.14,0.69,0.33,0.76,0.58c0.42,1.51,2.45,1.71,2.68,3.34
			c0.01,0.04,0.1,0.07,0.16,0.1c1.19,0.53,1.99,1.48,2.8,2.46c0.5,0.6,1.13,1.25,1.83,1.49c1.53,0.54,2.89,1.41,4.38,1.98
			c1.51,0.58,2.61,1.59,3.51,2.87c1.09,1.54,1.96,3.2,2.68,4.92c0.39,0.93,0.95,1.58,1.84,2c0.36,0.17,0.75,0.34,1.03,0.61
			c1.18,1.17,2.22,2.49,3.59,3.46c0.4,0.98,1.38,1.43,2.01,2.19c-0.03,0.04-0.07,0.08-0.08,0.12c-0.01,0.02,0.06,0.08,0.08,0.07
			C193.06,359.4,193.1,359.36,193.14,359.33z M182.28,362.35c-0.55,0.13-1.13,0.26-1.71,0.42c-1.69,0.47-3.14,1.44-4.64,2.3
			c-1.22,0.69-2.42,1.4-3.37,2.47c-0.53,0.6-1.06,1.2-1.63,1.75c-2.03,1.97-3.41,4.44-5.13,6.66c-0.4,0.52-0.62,1.17-0.93,1.76
			c-0.12,0.24-0.21,0.5-0.38,0.7c-0.75,0.86-1.42,1.75-1.83,2.84c-0.4,1.05-1.31,1.84-1.7,2.93c-0.27,0.75-0.69,1.44-1.05,2.16
			c-0.72,1.43-1.48,2.84-2.13,4.3c-0.43,0.97-0.73,2-1.06,3.01c-0.54,1.65-1.04,3.31-1.57,4.96c-0.22,0.69-0.52,1.37-0.69,2.07
			c-0.51,2.14-0.9,4.32-1.46,6.45c-0.56,2.15-0.84,4.33-1.02,6.53c-0.1,1.19-0.01,2.4-0.16,3.57c-0.17,1.27-0.24,2.53-0.15,3.79
			c0.13,1.93,0.27,3.87,0.44,5.8c0.11,1.26,0.13,2.57,0.48,3.77c0.32,1.11,0.46,2.21,0.62,3.33c0.27,1.99,0.63,3.98,1.42,5.82
			c0.95,2.2,1.87,4.42,3.11,6.48c0.38,0.63,0.73,1.27,1.08,1.93c0.93,1.77,1.76,3.6,2.78,5.32c1.12,1.89,2.32,3.75,3.64,5.52
			c1.48,1.98,3.1,3.84,4.7,5.73c0.82,0.97,1.74,1.85,2.58,2.8c0.8,0.9,1.6,1.8,2.32,2.76c0.74,0.99,1.88,1.7,2.21,2.99
			c0.03,0.1,0.17,0.21,0.29,0.26c0.98,0.43,1.54,1.25,2.05,2.13c0.1,0.17,0.2,0.4,0.36,0.47c0.9,0.4,1.39,1.21,2.03,1.89
			c2.33,2.49,4.75,4.89,7.04,7.42c2.96,3.28,6.1,6.38,9.26,9.46c3.63,3.55,7.26,7.1,10.87,10.68c1.19,1.18,2.31,2.42,3.43,3.66
			c1.97,2.18,3.86,4.45,5.89,6.56c2.65,2.75,5.19,5.59,7.77,8.4c1.08,1.18,2.1,2.43,3.25,3.55c1.49,1.45,2.9,2.94,4.05,4.69
			c0.22,0.33,0.53,0.61,0.81,0.89c0.56,0.56,1.17,1.09,1.71,1.68c1.25,1.37,2.47,2.77,3.72,4.15c0.89,0.99,1.91,1.89,2.68,2.97
			c1.1,1.54,2.45,2.83,3.72,4.21c0.5,0.54,0.94,1.13,1.4,1.7c0.46,0.57,1.13,1.09,1.32,1.74c0.28,0.93,1.14,1.04,1.65,1.6
			c0.22,0.25,0.45,0.49,0.66,0.75c1.81,2.23,3.6,4.48,5.95,6.2c0.53,0.39,0.97,0.9,1.4,1.4c0.21,0.25,0.42,0.28,0.69,0.22
			c0.72-0.16,1.23-0.54,1.3-1.32c0.05-0.52,0.08-1.06,0.03-1.58c-0.13-1.32-0.24-2.64-0.31-3.97c-0.05-0.98,0-1.97-0.16-2.96
			c-0.31-1.84-0.31-3.7-0.01-5.58c0.4-2.57,0.6-5.18,0.74-7.78c0.11-1.95,0.4-3.85,0.83-5.75c0.19-0.85,0.3-1.71,0.49-2.56
			c0.59-2.6,1.19-5.19,1.79-7.78c0.03-0.13,0.11-0.25,0.15-0.37c0.5-1.52,1.06-3.03,1.5-4.57c1.05-3.74,2.36-7.38,3.84-10.95
			c0.87-2.09,1.76-4.19,3.15-6.03c0.16-0.21,0.34-0.45,0.37-0.69c0.13-0.83,0.61-1.47,1.05-2.14c0.77-1.17,1.55-2.34,2.25-3.55
			c0.98-1.68,2.1-3.25,3.31-4.76c1.12-1.41,2.28-2.78,3.46-4.14c1.98-2.28,3.53-4.87,5.25-7.33c1.07-1.52,1.8-3.25,2.07-5.14
			c0.14-0.97,0-1.78-0.66-2.59c-1.68-2.06-3.77-3.79-4.99-6.22c-0.11-0.23-0.37-0.38-0.56-0.57c-0.29-0.28-0.6-0.54-0.87-0.83
			c-1.82-1.94-3.34-4.17-5.54-5.73c-1.09-1.45-2.43-2.66-3.72-3.92c-1.48-1.44-2.93-2.91-4.37-4.39c-1.53-1.58-3-3.23-4.58-4.76
			c-0.19-0.18-0.32-0.43-0.5-0.63c-1.42-1.5-2.75-3.12-4.3-4.46c-1.42-1.23-2.66-2.63-3.9-4.01c-1.43-1.59-2.8-3.25-4.38-4.67
			c-2.64-2.37-4.8-5.21-7.56-7.43c-0.15-0.12-0.26-0.31-0.4-0.45c-0.5-0.53-1.01-1.06-1.52-1.58c-2.4-2.42-4.83-4.8-7.2-7.25
			c-1.81-1.87-3.52-3.83-5.3-5.73c-0.55-0.58-1.18-1.09-1.74-1.66c-0.85-0.85-1.63-1.78-2.51-2.59c-0.92-0.85-1.58-1.97-2.7-2.61
			c-0.22-0.13-0.36-0.39-0.54-0.59c-1.02-1.14-1.99-2.33-3.07-3.42c-3.13-3.19-6.26-6.38-9.59-9.37c-0.75-0.67-1.54-1.32-2.14-2.11
			c-1.54-2.02-3.54-3.61-5.05-5.65c-0.66-0.89-1.64-1.55-2.47-2.33c-0.63-0.6-1.26-1.2-1.85-1.83c-1.88-1.99-3.72-4.03-5.87-5.75
			c-0.78-0.63-1.54-1.3-2.22-2.03c-1.51-1.62-3.36-2.61-5.51-3.05C183.78,362.65,183.07,362.51,182.28,362.35z M335.94,600.86
			c-0.25,2.64,0.02,4.91,0.17,7.17c0.18,2.67,0.47,5.32,0.78,7.98c0.29,2.45,0.42,4.92,0.92,7.34c0.49,2.41,0.82,4.87,1.77,7.18
			c0.05,1.22,1.05,2.17,0.96,3.43c1.02,3.03,1.82,6.13,3.04,9.09c0.68,1.67,1.64,3.2,2.36,4.85c0.6,1.39,1.55,2.65,2.4,3.92
			c1.38,2.05,2.79,4.08,4.22,6.1c0.66,0.93,1.32,1.86,2.08,2.69c1.52,1.68,3.09,3.32,4.67,4.94c1.92,1.96,3.98,3.77,6.18,5.41
			c0.97,0.72,1.95,1.43,2.83,2.25c0.9,0.83,1.74,1.64,3.04,1.79c0.37,0.04,0.7,0.37,1.06,0.56c0.53,0.28,1.05,0.6,1.6,0.83
			c2.66,1.11,5.38,2.02,8.2,2.63c0.77,0.17,1.6,0.27,2.38,0.18c0.68-0.08,1.33-0.05,1.99-0.01c2.54,0.15,5.06,0.15,7.6-0.2
			c1.45-0.2,2.87-0.48,4.3-0.79c2.53-0.55,5.13-0.74,7.6-1.59c2.21-0.16,4.25-1.08,6.44-1.37c1.83-0.25,3.6-1.01,5.38-1.57
			c0.31-0.1,0.57-0.34,0.87-0.47c0.17-0.08,0.41-0.16,0.54-0.09c0.57,0.28,1.04,0.01,1.52-0.22c0.54-0.25,1.06-0.66,1.63-0.75
			c2.08-0.3,3.95-1.21,5.91-1.84c1.97-0.63,3.95-1.25,5.92-1.89c2.35-0.76,4.69-1.55,7.03-2.31c2.67-0.86,5.24-2.01,8.03-2.51
			c0.26-0.05,0.5-0.18,0.74-0.29c1.28-0.59,2.63-0.94,4-1.26c2.02-0.47,4.03-0.98,6.03-1.5c3.43-0.9,6.65-2.44,10.04-3.47
			c1.2-0.79,2.62-0.99,3.93-1.49c1.05-0.39,2.03-0.93,3.14-1.2c1.1-0.27,2.16-0.7,3.23-1.07c1.26-0.43,2.6-0.73,3.76-1.35
			c1.73-0.91,3.53-1.6,5.34-2.29c2.3-0.89,4.71-1.5,6.95-2.58c0.54-0.26,1.1-0.48,1.67-0.67c0.69-0.23,1.43-0.35,2.1-0.62
			c2.54-0.98,5.17-1.76,7.54-3.15c0.1-0.06,0.27-0.07,0.38-0.03c0.58,0.2,1.04-0.14,1.53-0.32c0.44-0.16,0.83-0.47,1.28-0.58
			c2.03-0.47,3.89-1.38,5.84-2.07c1.7-0.6,3.39-1.26,5.08-1.89c2.38-0.89,4.75-1.78,7.14-2.66c2-0.74,3.95-1.61,6.05-2.06
			c0.39-0.08,0.77-0.26,1.11-0.47c0.69-0.43,1.45-0.66,2.22-0.9c1.08-0.34,2.15-0.74,3.22-1.13c0.82-0.3,1.61-0.67,2.44-0.91
			c3.86-1.11,7.55-2.69,11.29-4.11c0.44-0.17,0.87-0.34,1.32-0.45c2.28-0.55,4.37-1.63,6.59-2.34c1.08-0.34,2.13-0.8,3.2-1.17
			c1.01-0.35,2.06-0.6,3.04-1.03c1.84-0.81,3.75-1.4,5.63-2.07c2.32-0.82,4.59-1.77,6.95-2.51c3.5-1.1,6.9-2.5,10.33-3.8
			c4.06-1.54,8.16-2.98,12.19-4.59c1.48-0.59,2.94-1.24,4.48-1.71c3.58-1.09,7.1-2.37,10.63-3.63c1.12-0.4,2.34-0.6,3.3-1.4
			c0.19-0.16,0.5-0.16,0.75-0.24c0.9-0.26,1.82-0.45,2.69-0.77c1.94-0.71,3.86-1.49,5.79-2.22c3.12-1.18,6.25-2.34,9.37-3.54
			c2.67-1.03,5.28-2.22,7.98-3.12c2.66-0.89,5.2-2.06,7.84-3c3.27-1.17,6.52-2.38,9.77-3.6c2.43-0.92,4.86-1.87,7.27-2.85
			c3.78-1.53,7.51-3.19,11.34-4.59c3.39-1.24,6.7-2.68,10.03-4.06c4.26-1.76,8.4-3.78,12.61-5.67c0.8-0.36,1.5-0.83,2.2-1.37
			c1.64-1.25,2.24-2.93,2.23-4.9c0-2.04-1.16-2.51-2.73-2.15c-2.01,0.45-4.03,0.88-5.97,1.62c-5.56,2.11-11.21,3.95-16.74,6.16
			c-0.25,0.1-0.51,0.15-0.77,0.23c-3.12,0.98-6.3,1.75-9.29,3.14c-0.42,0.19-0.9,0.26-1.35,0.4c-0.51,0.15-1.02,0.31-1.53,0.47
			c-3.83,1.17-7.45,2.93-11.27,4.12c-0.37,0.12-0.7,0.38-1.05,0.57c-0.23,0.13-0.45,0.32-0.69,0.36c-1.6,0.28-3.02,1.06-4.53,1.61
			c-1.56,0.57-3.13,1.19-4.75,1.54c-2.57,0.55-4.92,1.71-7.45,2.34c-1.61,0.4-3.16,1.09-4.73,1.65c-0.57,0.2-1.16,0.35-1.71,0.59
			c-3.12,1.36-6.12,2.99-9.41,3.95c-1.97,1.19-4.36,1.27-6.34,2.42c-1.28,0.11-2.37,0.83-3.59,1.14c-1.22,0.31-2.43,0.67-3.67,0.94
			c-0.65,0.14-1.27,0.41-1.9,0.64c-2,0.73-4,1.48-6,2.21c-1.57,0.57-3.17,1.05-4.71,1.7c-2.14,0.89-4.45,1.42-6.42,2.73
			c-0.21,0.14-0.5,0.19-0.74,0.28c-1.49,0.56-3,1.09-4.48,1.7c-1.72,0.71-3.41,1.51-5.13,2.24c-0.74,0.31-1.54,0.49-2.25,0.84
			c-2.59,1.27-5.4,1.93-8.05,3.02c-0.92,0.38-1.91,0.6-2.83,0.98c-0.47,0.2-0.82,0.72-1.3,0.87c-0.48,0.16-1.06-0.01-1.58,0.07
			c-0.52,0.08-1.02,0.28-1.53,0.45c-0.44,0.15-0.86,0.44-1.31,0.49c-1.61,0.18-3.09,0.73-4.58,1.31c-1.04,0.4-2.1,0.79-3.16,1.16
			c-1.76,0.6-3.57,1.1-5.31,1.78c-1,0.39-1.99,0.8-3,1.14c-1.96,0.67-3.92,1.37-5.79,2.26c-0.6,0.29-1.23,0.62-1.87,0.69
			c-1.17,0.12-2.16,0.69-3.22,1.08c-0.5,0.18-0.97,0.43-1.47,0.64c-1.48,0.61-3.01,1.13-4.44,1.85c-1.85,0.93-3.78,1.67-5.68,2.49
			c-3.8,1.64-7.7,3.05-11.44,4.84c-0.54,0.26-1.1,0.5-1.66,0.7c-0.62,0.22-1.23,0.49-1.94,0.16c-0.38-0.18-0.87-0.01-1.06,0.35
			c-0.35,0.67-0.95,0.86-1.59,1.1c-1.12,0.42-2.21,0.93-3.32,1.39c-0.31,0.13-0.62,0.27-0.94,0.32c-0.93,0.13-1.8,0.31-2.56,0.96
			c-0.37,0.31-0.98,0.36-1.5,0.45c-2.58,0.44-5.03,1.32-7.46,2.22c-1.36,0.5-2.62,1.21-4.02,1.68c-1.82,0.61-3.51,1.62-5.43,1.96
			c-0.13,0.02-0.25,0.1-0.36,0.17c-1.32,0.96-3,1.09-4.38,1.94c-0.17,0.1-0.38,0.12-0.57,0.18c-0.96,0.29-1.92,0.58-2.88,0.86
			c-1.41,0.41-2.82,0.82-4.22,1.23c-1.79,0.53-3.48,1.33-5.34,1.64c-0.06,0.01-0.13,0.05-0.18,0.08c-0.78,0.57-1.74,0.66-2.62,0.95
			c-0.57,0.19-1.13,0.4-1.7,0.59c-2.33,0.81-4.53,1.99-7,2.38c-0.32,0.05-0.62,0.23-0.94,0.34c-0.56,0.21-1.12,0.43-1.69,0.62
			c-2.72,0.91-5.46,1.79-8.16,2.74c-1.76,0.62-3.49,1.36-5.24,2.03c-0.81,0.31-1.68,0.48-2.46,0.86c-2.12,1.04-4.48,1.32-6.62,2.28
			c-0.24,0.11-0.51,0.16-0.78,0.19c-1.22,0.13-2.31,0.63-3.38,1.21c-0.76,0.41-1.58,0.71-2.39,1.01c-2.06,0.75-4.12,1.48-6.19,2.2
			c-1.64,0.57-3.28,1.15-4.95,1.63c-1.86,0.53-3.77,0.9-5.6,1.56c-1.07,0.38-2.17,0.73-3.28,0.92c-2.61,0.45-5.23,0.85-7.85,1.19
			c-1.99,0.26-3.99,0.29-5.99,0.05c-0.2-0.02-0.4,0.02-0.6-0.01c-0.66-0.09-1.31-0.18-1.97-0.3c-0.66-0.13-1.3-0.39-1.96-0.42
			c-1.57-0.08-3-0.66-4.45-1.14c-0.94-0.31-1.91-0.59-2.69-1.29c-0.44-0.39-1.01-0.73-1.57-0.86c-1.51-0.34-2.55-1.4-3.72-2.27
			c-0.32-0.24-0.61-0.53-0.95-0.74c-1.82-1.16-3.32-2.69-4.83-4.2c-0.28-0.28-0.52-0.61-0.77-0.92c-0.16-0.2-0.28-0.53-0.48-0.61
			c-1.06-0.4-1.55-1.39-2.28-2.13c-1.3-1.33-2.68-2.6-3.6-4.26c-0.28-0.51-0.84-0.87-1.12-1.38c-1.46-2.63-3.16-5.12-4.65-7.72
			c-0.3-0.52-0.67-1.03-0.83-1.59c-0.26-0.91-0.72-1.71-1.22-2.48c-0.59-0.91-0.96-1.9-1.25-2.93c-0.33-1.16-0.65-2.32-1.02-3.46
			c-0.13-0.41-0.13-0.74,0.05-1.14c0.18-0.39-0.05-0.57-0.47-0.65c-0.18-0.03-0.38-0.37-0.43-0.59c-0.1-0.45-0.15-0.93-0.15-1.39
			c0-0.94-0.04-1.86-0.54-2.71c-0.19-0.33-0.19-0.77-0.25-1.16c-0.08-0.6-0.12-1.2-0.19-1.8c-0.21-1.84-0.44-3.68-0.64-5.52
			c-0.09-0.8-0.16-1.59-0.18-2.39c-0.02-0.86,0.11-1.73,0.03-2.58c-0.18-1.86,0.17-3.7-0.01-5.58c-0.17-1.76-0.31-3.59,0.14-5.36
			c-0.21-1.69,0.17-3.33,0.42-4.98c0.15-0.99,0.29-1.98,0.36-2.98c0.12-1.81,0.37-3.58,0.88-5.32c0.3-1.02,0.42-2.09,0.66-3.13
			c0.1-0.45,0.27-0.88,0.42-1.32c0.08-0.24,0.2-0.48,0.26-0.73c0.29-1.36,0.57-2.74,1.04-4.05c0.57-1.58,1.04-3.17,1.31-4.82
			c0.08-0.48,0.21-0.89,0.49-1.29c1.35-1.92,2.18-4.11,3.22-6.2c1.43-2.87,2.61-5.86,4.59-8.43c0.2-0.26,0.34-0.57,0.5-0.86
			c1.82-3.25,4.23-6.01,7.08-8.39c0.93-0.78,1.89-1.51,2.6-2.49c1.04-1.43,2.38-2.55,3.77-3.58c1.65-1.23,3.41-2.33,5.13-3.47
			c0.89-0.59,1.8-1.15,2.7-1.72c0.22-0.14,0.46-0.33,0.7-0.37c0.64-0.09,1.07-0.51,1.57-0.84c0.67-0.43,1.35-0.88,2.04-1.28
			c1.33-0.77,2.67-1.53,4.02-2.25c1-0.53,1.94-1.2,3.09-1.37c0.32-0.05,0.43-0.24,0.59-0.44c0.16-0.2,0.37-0.39,0.6-0.49
			c2.21-0.94,4.33-2.07,6.6-2.87c1.01-0.36,2.07-0.51,3.07-0.85c1.64-0.56,3.23-1.27,4.85-1.91c0.62-0.25,1.23-0.53,1.87-0.72
			c1.29-0.38,2.51-0.91,3.72-1.49c0.54-0.26,1.1-0.49,1.66-0.69c1.31-0.47,2.73-0.68,3.78-1.72c0.07-0.07,0.23-0.07,0.35-0.06
			c1.11,0.08,2.07-0.44,3.06-0.78c2.97-1.01,5.9-2.15,8.87-3.14c1.4-0.46,2.73-1.07,4.11-1.6c3.06-1.17,6.18-2.18,9.18-3.49
			c3.74-1.63,7.62-2.85,11.47-4.17c2.52-0.87,5.06-1.69,7.5-2.78c0.55-0.25,1.06-0.58,1.62-0.78c1.7-0.6,3.41-1.16,5.13-1.7
			c2.48-0.78,4.96-1.57,7.45-2.32c2.62-0.79,5.17-1.82,7.75-2.74c0.69-0.25,1.42-0.44,2.06-0.78c0.96-0.51,1.99-0.76,3.01-1.08
			c1.65-0.52,3.34-1,4.89-1.76c2.24-1.09,4.56-1.91,6.95-2.52c1.31-0.33,2.54-0.84,3.74-1.37c0.98-0.44,1.97-0.81,2.98-1.12
			c0.7-0.22,1.43-0.38,2.12-0.61c3.74-1.24,7.4-2.7,11.08-4.09c1.87-0.7,3.77-1.32,5.61-2.11c0.59-0.25,1.25-0.33,1.86-0.53
			c0.82-0.27,1.62-0.61,2.44-0.85c1.98-0.59,3.98-1.11,5.96-1.72c2.81-0.87,5.64-1.69,8.38-2.74c3.55-1.37,7.18-2.51,10.8-3.68
			c2.99-0.97,5.92-2.05,8.83-3.22c2.6-1.05,5.25-1.99,7.94-2.82c1.84-0.57,3.67-1.16,5.5-1.77c0.43-0.14,0.82-0.47,1.26-0.55
			c1.86-0.33,3.53-1.17,5.27-1.86c1.99-0.78,3.98-1.55,6-2.25c1.13-0.39,2.34-0.57,3.47-0.95c2.08-0.7,4.27-1.11,6.2-2.24
			c0.17-0.1,0.38-0.14,0.57-0.17c2.33-0.39,4.44-1.45,6.62-2.26c2.51-0.93,4.97-1.98,7.51-2.83c3.1-1.03,6.19-2.09,9.35-2.95
			c0.19-0.05,0.41-0.05,0.58-0.13c2.61-1.24,5.46-1.73,8.16-2.7c2.18-0.78,4.4-1.5,6.55-2.35c2.49-0.98,5.05-1.71,7.6-2.49
			c1.72-0.53,3.49-0.84,5.14-1.66c1.37-0.68,2.81-1.19,4.2-1.85c1.38-0.65,2.89-1.04,4.31-1.62c1.42-0.57,2.92-0.88,4.34-1.48
			c2.21-0.93,4.52-1.59,6.8-2.37c1.38-0.47,2.75-1.01,4.11-1.52c1.07-0.4,2.15-0.69,3.24-1c2.24-0.66,4.31-1.76,6.56-2.42
			c1.85-0.54,3.64-1.3,5.47-1.94c0.31-0.11,0.65-0.16,0.98-0.21c1-0.15,1.97-0.37,2.85-0.89c0.21-0.12,0.49-0.15,0.73-0.2
			c0.52-0.1,1.07-0.11,1.55-0.3c2.23-0.89,4.61-1.3,6.83-2.22c0.67-0.28,1.37-0.5,2.04-0.77c0.68-0.27,1.35-0.56,2.02-0.86
			c0.52-0.23,0.86-0.64,1.01-1.18c0.29-1.09,0.59-2.19,0.8-3.3c0.34-1.73-0.34-3.3-0.92-4.86c-0.52-1.42-1.09-1.75-2.59-1.69
			c-0.39,0.02-0.78,0.15-1.16,0.26c-0.51,0.15-1.01,0.4-1.53,0.47c-1.35,0.17-2.57,0.72-3.81,1.24c-0.43,0.18-0.87,0.45-1.31,0.48
			c-1.88,0.13-3.21,1.63-5.02,1.9c-0.8,0.79-1.91,0.92-2.88,1.33c-2.33,0.99-4.77,1.71-7.03,2.88c-0.75,0.39-1.64,0.55-2.48,0.73
			c-0.92,0.2-1.82,0.44-2.59,1c-0.5,0.36-1.05,0.54-1.65,0.68c-1.04,0.24-2.16,0.42-3.05,0.95c-1.69,1.01-3.51,1.65-5.32,2.35
			c-1.74,0.68-3.5,1.31-5.25,1.96c-1.38,0.5-2.76,0.99-4.15,1.48c-0.69,0.24-1.38,0.5-2.09,0.68c-1.29,0.33-2.58,0.66-3.79,1.27
			c-0.41,0.21-0.87,0.35-1.31,0.48c-1.27,0.37-2.55,0.72-3.76,1.32c-1.08,0.53-2.23,0.89-3.36,1.3c-0.75,0.28-1.53,0.49-2.27,0.77
			c-2.38,0.89-4.74,1.82-7.12,2.7c-0.94,0.35-1.92,0.59-2.85,0.94c-1.18,0.45-2.33,0.99-3.51,1.45c-1.18,0.46-2.44,0.76-3.56,1.33
			c-1.74,0.89-3.62,1.36-5.43,2.02c-2.26,0.83-4.56,1.52-6.82,2.34c-2.89,1.04-5.75,2.15-8.63,3.23c-1.69,0.63-3.37,1.27-5.06,1.91
			c-3.13,1.17-6.21,2.46-9.54,3.01c-0.39,0.07-0.82,0.14-1.15,0.34c-1.06,0.64-2.25,0.84-3.42,1.12c-0.39,0.09-0.76,0.26-1.13,0.39
			c-1.25,0.45-2.5,0.95-3.77,1.35c-1.21,0.38-2.46,0.64-3.57,1.28c-0.28,0.16-0.62,0.22-0.93,0.33c-1.2,0.42-2.39,0.84-3.59,1.26
			c-0.57,0.2-1.13,0.4-1.7,0.57c-0.96,0.29-1.98,0.44-2.86,0.88c-1.03,0.51-2.14,0.71-3.2,1.1c-0.75,0.28-1.51,0.54-2.26,0.8
			c-0.31,0.11-0.63,0.33-0.94,0.3c-0.64-0.05-1.16,0.24-1.73,0.43c-1.77,0.6-3.56,1.16-5.34,1.74c-0.32,0.1-0.64,0.2-0.95,0.31
			c-2.08,0.72-4.14,1.48-6.23,2.17c-3.17,1.05-6.33,2.13-9.53,3.07c-3.21,0.94-6.3,2.21-9.52,3.11c-1.54,0.43-3,1.15-4.55,1.5
			c-2.94,0.68-5.63,2.03-8.48,2.95c-1,0.32-1.98,0.77-2.99,1.11c-1.26,0.42-2.51,0.88-3.76,1.35c-1,0.38-1.97,0.83-2.96,1.2
			c-1.81,0.68-3.76,0.95-5.48,1.92c-0.22,0.12-0.52,0.09-0.78,0.16c-0.51,0.14-1.03,0.28-1.53,0.46c-1.19,0.43-2.39,0.84-3.55,1.33
			c-2.46,1.04-5.1,1.57-7.57,2.6c-2.27,0.94-4.71,1.48-7.01,2.36c-1.92,0.73-3.88,1.37-5.83,1.96c-2.88,0.87-5.63,2.07-8.44,3.09
			c-2.38,0.87-4.75,1.79-7.13,2.65c-1.94,0.7-4.03,0.95-5.88,1.95c-0.17,0.09-0.38,0.1-0.58,0.14c-1.63,0.35-3.22,0.86-4.78,1.45
			c-0.91,0.35-1.8,0.68-2.78,0.89c-1.82,0.39-3.6,1.02-5.37,1.61c-2.72,0.9-5.4,1.96-8.16,2.77c-2.51,0.74-4.92,1.7-7.34,2.65
			c-1.68,0.66-3.35,1.32-5.04,1.95c-2.44,0.91-4.92,1.72-7.32,2.72c-2.96,1.23-6.02,2.19-8.93,3.57c-1.69,0.8-3.42,1.51-4.97,2.56
			c-0.33,0.22-0.67,0.44-1.04,0.6c-2.94,1.29-5.89,2.55-8.82,3.84c-2.69,1.18-5.39,2.36-8.06,3.59c-2,0.92-3.95,1.95-5.95,2.87
			c-4.74,2.21-9.37,4.6-13.45,7.93c-0.72,0.59-1.51,1.09-2.25,1.65c-2.31,1.74-4.12,4-6.14,6.04c-0.74,0.76-1.44,1.59-2.02,2.47
			c-1.14,1.73-2.2,3.51-3.27,5.28c-0.42,0.68-0.81,1.37-1.19,2.08c-0.88,1.65-1.71,3.32-2.64,4.95c-1.55,2.73-3.04,5.5-4.38,8.34
			c-0.37,0.79-0.85,1.54-1.1,2.36c-1.16,3.91-2.39,7.8-3.32,11.76c-0.81,3.44-1.53,6.92-1.68,10.49c-0.06,1.46-0.17,2.91-0.27,4.37
			c-0.08,1.13-0.2,2.26-0.25,3.39C335.91,599.36,335.94,600.3,335.94,600.86z M281.35,559.18c0.01,0,0.02,0,0.03,0
			c0,0.8-0.04,1.61,0.01,2.41c0.12,2.26,0.25,4.52,0.68,6.75c0.67,3.48,1.39,6.94,2.19,10.39c0.73,3.16,2,6.08,3.48,8.91
			c1.68,3.2,3.85,6.1,5.94,9.04c0.73,1.03,1.4,2.14,2.28,3.03c1.04,1.04,1.97,2.18,3.01,3.21c1.89,1.87,3.26,4.24,5.53,5.74
			c0.49,0.33,0.92,0.77,1.36,1.17c0.24,0.22,0.59,0.45,0.66,0.73c0.13,0.51,0.48,0.76,0.86,1c1.2,0.77,2.19,1.78,3.1,2.84
			c1.27,1.47,2.54,2.92,4.07,4.13c0.36,0.29,0.62,0.7,0.92,1.06c1.39,1.7,2.72,3.44,4.53,4.74c0.16,0.12,0.3,0.27,0.42,0.43
			c1.52,1.95,3.09,3.85,5.03,5.42c0.51,0.42,1.15,0.91,1.29,1.48c0.19,0.76,0.85,0.92,1.19,1.42c0.14,0.21,0.14,0.61,0.31,0.69
			c1.21,0.57,1.84,1.72,2.63,2.68c0.65,0.78,1.37,1.46,2.12,2.11c0.65,0.56,1.25,0.56,2.18-0.04c0.59-0.38,0.03-0.82-0.03-1.24
			c-0.1-0.66-0.38-1.26-0.63-1.87c-0.43-1.04-0.74-2.15-0.92-3.26c-0.37-2.23-0.6-4.49-0.93-6.73c-0.31-2.11-0.6-4.23-1.05-6.32
			c-0.51-2.36-0.82-4.73-0.9-7.15c-0.03-1.07,0.01-2.16-0.18-3.2c-0.23-1.26-0.29-2.52-0.27-3.79c0.01-1.54,0.15-3.09,0.02-4.62
			c-0.12-1.52,0.07-3.02-0.14-4.56c-0.21-1.56,0.02-3.2,0.19-4.8c0.24-2.32,0.76-4.61,0.8-6.96c0.02-1,0.18-1.99,0.29-2.99
			c0.04-0.4,0.07-0.82,0.23-1.17c0.29-0.63,0.25-1.3,0.34-1.96c0.06-0.39,0.07-0.79,0.15-1.18c0.35-1.69,0.73-3.38,1.09-5.07
			c0.3-1.37,0.58-2.74,0.89-4.11c0.13-0.57,0.44-0.92,1.12-0.91c0.4,0.01,0.46-0.23,0.13-0.48c-0.42-0.32-0.62-0.58-0.35-1.15
			c0.99-2.11,1.42-4.43,2.44-6.54c0.29-0.6,0.54-1.21,0.86-1.79c0.65-1.16,1.48-2.24,1.98-3.46c0.57-1.37,1.33-2.59,2.13-3.83
			c0.86-1.34,1.77-2.65,2.36-4.17c0.5-1.3,1.23-2.53,1.98-3.7c1.14-1.77,1.83-3.69,2.22-5.74c0.08-0.4,0.02-0.76-0.1-1.17
			c-0.36-1.21-0.62-2.46-0.94-3.68c-0.12-0.45-0.23-0.92-0.46-1.32c-0.46-0.81-0.88-1.7-1.53-2.35c-1.47-1.46-2.67-3.15-4.02-4.7
			c-1.22-1.41-2.56-2.72-3.73-4.17c-1.92-2.39-3.64-4.96-6.1-6.87c-1.35-1.67-2.92-3.1-4.45-4.6c-2-1.95-3.89-4.01-6.04-5.8
			c-0.31-0.26-0.55-0.58-0.83-0.86c-0.42-0.43-0.81-0.88-1.26-1.28c-0.95-0.84-1.98-1.59-2.86-2.49c-1.03-1.04-2.08-2.01-3.25-2.91
			c-1.96-1.5-3.97-1.42-6.05-0.67c-2.42,0.88-4.45,2.41-6.24,4.25c-0.51,0.52-1.04,1.01-1.41,1.67c-0.72,1.27-1.36,2.61-2.58,3.53
			c-0.15,0.11-0.2,0.34-0.32,0.51c-0.41,0.61-0.8,1.24-1.26,1.81c-1.58,1.93-2.77,4.09-3.87,6.3c-1.42,2.87-2.91,5.7-4.11,8.68
			c-0.05,0.12-0.08,0.26-0.15,0.37c-0.46,0.65-0.71,1.35-0.89,2.14c-0.34,1.49-0.91,2.92-1.38,4.38c-0.08,0.25-0.2,0.51-0.21,0.77
			c-0.04,1.75-0.66,3.39-0.94,5.09c-0.35,2.09-1.1,4.13-0.96,6.29c-0.54,1.68-0.43,3.44-0.68,5.16c-0.24,1.58-0.57,3.15-0.5,4.77
			c0.01,0.33-0.04,0.67-0.11,1c-0.39,1.63-0.21,3.32-0.49,4.98C280.99,556.1,281.29,557.66,281.35,559.18z M107.8,361.8
			c-0.02,0.4-0.13,1.14-0.08,1.87c0.29,4.06,0.48,8.13,1.43,12.11c0.06,0.26,0.16,0.52,0.16,0.78c-0.02,2.23,0.57,4.36,1.06,6.5
			c0.24,1.04,0.58,2.05,0.72,3.11c0.25,1.79,0.74,3.51,1.52,5.16c0.17,0.36,0.26,0.75,0.39,1.13c0.41,1.2,0.66,2.48,1.27,3.57
			c0.95,1.7,1.53,3.54,2.41,5.26c1.25,2.43,2.04,5.07,3.48,7.42c0.52,0.85,0.93,1.79,1.25,2.73c0.59,1.71,1.76,3.15,2.22,4.91
			c0.03,0.12,0.15,0.22,0.22,0.34c1.05,1.94,2.69,3.48,3.66,5.47c0.17,0.35,0.48,0.67,0.8,0.9c1.27,0.89,2.36,1.96,3.34,3.15
			c0.12,0.15,0.31,0.26,0.47,0.37c0.62,0.44,1.26,0.54,1.67,0.2c0.46-0.38,0.54-0.97,0.37-1.45c-0.31-0.86-0.19-1.72-0.2-2.58
			c-0.01-0.74,0.09-1.48,0-2.21c-0.28-2.06-0.29-4.13-0.35-6.2c-0.11-3.82,0.2-7.61,0.62-11.4c0.11-1,0.04-2.04,0.31-2.99
			c0.46-1.61,0.16-3.36,0.96-4.9c0.23-2.26,0.84-4.45,1.45-6.63c0.79-2.83,1.48-5.69,2.76-8.36c0.87-1.81,1.61-3.67,2.33-5.54
			c0.68-1.74,1.51-3.42,2.32-5.1c0.96-1.99,2.12-3.87,3.13-5.83c1.73-3.36,4.03-6.27,6.45-9.12c0.12-0.14,0.31-0.28,0.34-0.44
			c0.14-0.71,0.66-1.17,1.15-1.58c0.63-0.52,1.09-1.18,1.67-1.72c1.71-1.59,3.07-3.55,5.1-4.81c0.28-0.17,0.49-0.46,0.71-0.7
			c1.26-1.38,1.21-3.14-0.08-4.46c-1.26-1.29-2.57-2.53-3.74-3.9c-1.12-1.31-2.45-2.43-3.44-3.88c-0.82-1.2-2.02-2.14-2.8-3.39
			c-0.14-0.22-0.35-0.41-0.54-0.59c-1.3-1.15-2.65-2.25-3.89-3.46c-1.1-1.07-2.18-2.15-3.46-3.01c-0.21-0.14-0.35-0.41-0.54-0.59
			c-0.74-0.67-1.32-1.49-1.98-2.22c-0.66-0.73-1.54-1.27-2.3-1.92c-0.46-0.39-0.89-0.82-1.29-1.26c-2.35-2.56-4.68-5.14-7.06-7.68
			c-0.96-1.02-1.99-2-3.24-2.67c-1.48-0.79-2.44-0.69-3.66,0.45c-1.66,1.55-3.29,3.14-4.12,5.35c-0.09,0.25-0.2,0.54-0.39,0.69
			c-1.09,0.86-1.63,2.06-2.03,3.33c-0.02,0.06-0.06,0.12-0.09,0.18c-1.05,1.93-2.11,3.86-3.15,5.8c-0.22,0.41-0.4,0.83-0.57,1.27
			c-0.77,1.99-1.49,4-2.29,5.97c-0.38,0.93-0.72,1.85-0.94,2.84c-0.29,1.3-0.8,2.54-1.17,3.82c-0.18,0.64-0.3,1.3-0.4,1.96
			c-0.18,1.18-0.17,2.41-0.52,3.54c-0.55,1.76-0.6,3.55-0.69,5.34c-0.05,1-0.08,1.99-0.48,2.94c-0.2,0.47-0.17,1.05-0.19,1.58
			c-0.05,1-0.04,2-0.1,3c-0.11,1.93-0.24,3.86,0.05,5.79C107.86,360.53,107.8,361,107.8,361.8z M265.31,549.28
			c0.09,2.4,0.09,4.81,0.3,7.19c0.2,2.26,0.5,4.52,1,6.73c0.55,2.41,1.19,4.79,1.66,7.22c0.43,2.16,1.07,4.29,2.05,6.27
			c0.8,1.62,1.77,3.14,2.6,4.75c1.01,1.96,2.54,3.44,4.21,4.78c0.67,0.54,1.47,0.92,2.26,1.29c0.74,0.34,1.32-0.18,1.18-1.02
			c-0.06-0.4-0.14-0.79-0.28-1.17c-0.98-2.77-1.72-5.61-2.42-8.47c-1.03-4.22-2.02-8.43-2.42-12.78c-0.39-4.26-0.71-8.52-0.62-12.8
			c0.04-2.06,0.09-4.14,0.4-6.18c0.49-3.22,1.01-6.44,1.58-9.66c0.29-1.64,0.66-3.26,1.05-4.88c0.38-1.55,0.86-3.08,1.28-4.63
			c0.79-2.91,1.97-5.66,3.19-8.41c0.62-1.4,1.42-2.74,1.92-4.19c0.89-2.54,2.22-4.85,3.52-7.18c0.19-0.35,0.43-0.67,0.66-1
			c1.3-1.86,2.6-3.72,3.89-5.58c1.33-1.92,2.63-3.87,4.18-5.63c1.06-1.2,2.12-2.4,3.2-3.59c0.49-0.54,0.98-1.1,1.54-1.57
			c1.71-1.44,2.98-3.24,4.13-5.13c1.28-2.08,0.42-4.82-1.78-5.97c-1.11-0.58-2.29-0.69-3.5-0.75c-0.78-0.04-1.44,0.15-2.06,0.62
			c-1.17,0.89-2.37,1.74-3.54,2.63c-0.48,0.36-0.98,0.71-1.39,1.14c-2.27,2.36-4.53,4.72-6.77,7.11c-0.5,0.53-0.89,1.15-1.35,1.72
			c-1.05,1.29-2.19,2.52-3.14,3.88c-1.53,2.19-2.92,4.47-4.13,6.86c-3,5.92-5.47,11.27-7.32,17.93c-0.71,2.57-1.55,5.12-2.26,7.69
			c-0.45,1.6-0.83,3.22-1.15,4.85c-0.34,1.77-0.6,3.55-0.86,5.33C265.54,540.86,265.31,545.06,265.31,549.28z M492.56,236.21
			c-0.07-0.15-0.12-0.25-0.17-0.35c-0.14,0.1-0.29,0.18-0.4,0.31c-0.03,0.03,0.08,0.19,0.13,0.28
			C492.26,236.38,492.41,236.29,492.56,236.21z M708.24,397.73c0.12-0.03,0.23-0.07,0.35-0.1c-0.05-0.1-0.1-0.21-0.15-0.31
			c-0.14,0.07-0.28,0.14-0.42,0.22C708.09,397.6,708.16,397.67,708.24,397.73z M684.36,517.74c-0.09-0.26-0.14-0.43-0.2-0.6
			c-0.16,0.06-0.38,0.07-0.45,0.18c-0.05,0.09,0.04,0.34,0.15,0.43C683.94,517.83,684.14,517.76,684.36,517.74z M356.86,534.43
			c-0.02,0.05-0.06,0.11-0.05,0.15c0.04,0.18,0.12,0.19,0.2,0.02c0.02-0.04,0-0.11-0.03-0.16
			C356.97,534.42,356.91,534.43,356.86,534.43z M149.13,411.1c-0.02-0.05-0.04-0.1-0.06-0.15c-0.03,0.04-0.08,0.09-0.09,0.13
			c0,0.05,0.04,0.1,0.06,0.15C149.06,411.18,149.1,411.14,149.13,411.1z M566.09,288.26l-0.02,0.1l0.15-0.04L566.09,288.26z
			 M543.79,273.01c-0.05-0.02-0.11-0.04-0.16-0.04c-0.02,0-0.04,0.07-0.05,0.11c0.05,0.02,0.11,0.04,0.16,0.04
			C543.76,273.12,543.77,273.05,543.79,273.01z M576.01,587.53c0.06-0.04,0.16-0.09,0.16-0.1c-0.04-0.11-0.11-0.21-0.17-0.31
			c-0.05,0.04-0.15,0.1-0.14,0.12C575.89,587.34,575.96,587.43,576.01,587.53z M351.37,625.04c-0.02-0.05-0.04-0.11-0.07-0.16
			c-0.01,0.1-0.02,0.2-0.04,0.3C351.3,625.13,351.34,625.08,351.37,625.04z M688.49,373.12l0.11,0.08l0.01-0.12L688.49,373.12z
			 M299.52,240.08l-0.13-0.08l-0.01,0.14L299.52,240.08z"/>
		<path d="M381.16,684.12c0.13,0,0.25-0.01,0.38,0c0.37,0.02,0.75,0.05,1.12,0.07c-0.01,0.03-0.01,0.1-0.02,0.1
			c-0.43-0.04-0.86-0.07-1.28-0.12c-0.06-0.01-0.11-0.07-0.16-0.1L381.16,684.12z"/>
		<path d="M566.85,376.53c0.05,0.75-0.29,1.37-0.97,1.78c-0.46,0.28-0.93,0.53-1.43,0.73c-1.24,0.5-2.48,0.99-3.73,1.45
			c-2.18,0.81-4.38,1.6-6.57,2.41c-0.25,0.09-0.49,0.26-0.74,0.3c-2.62,0.39-4.89,1.76-7.34,2.6c-1.39,0.47-2.78,0.96-4.17,1.43
			c-1.9,0.64-3.82,1.24-5.61,2.17c-0.29,0.15-0.61,0.28-0.94,0.34c-1.73,0.32-3.32,1.01-4.94,1.64c-0.43,0.17-0.89,0.25-1.33,0.38
			c-0.38,0.11-0.83,0.14-1.12,0.37c-0.93,0.71-2.06,0.97-3.11,1.35c-1.25,0.45-2.45,1.1-3.81,1.2c-1.68,0.83-3.53,1.18-5.23,2
			c-1.5,0.73-3.11,1.21-4.69,1.76c-2.2,0.78-4.43,1.49-6.62,2.26c-1.88,0.66-3.75,1.38-5.61,2.09c-2.12,0.81-4.33,1.4-6.41,2.28
			c-1.85,0.78-3.81,1.21-5.62,2.12c-1.18,0.59-2.48,1.01-3.77,1.31c-1.19,0.28-2.26,0.8-3.39,1.22c-1.25,0.47-2.57,0.78-3.77,1.35
			c-1.95,0.93-4.03,1.41-6.05,2.09c-1.39,0.47-2.69,1.2-4.08,1.66c-1.83,0.6-3.6,1.38-5.43,2c-3.09,1.05-6.22,2-9.22,3.32
			c-0.24,0.11-0.48,0.25-0.73,0.33c-1.52,0.49-3.06,0.93-4.58,1.44c-0.82,0.28-1.58,0.77-2.42,0.95c-1.39,0.31-2.65,0.91-3.96,1.41
			c-2.06,0.78-4.09,1.62-6.14,2.43c-0.06,0.02-0.12,0.07-0.18,0.09c-2.75,0.83-5.31,2.16-8.05,3.03c-1.21,0.38-2.44,0.7-3.63,1.14
			c-2.88,1.07-5.74,2.19-8.61,3.3c-2.24,0.86-4.52,1.64-6.71,2.61c-2.2,0.98-4.48,1.74-6.76,2.5c-2.34,0.78-4.72,1.46-7.08,2.19
			c-0.51,0.16-1.05,0.27-1.51,0.53c-1.47,0.84-3.1,1.31-4.71,1.68c-1.22,0.28-2.46,0.54-3.69,0.77c-0.55,0.1-1.22-0.02-1.74-0.24
			c-0.66-0.29-1.29-0.72-1.83-1.2c-0.99-0.89-1.84-1.94-2.86-2.78c-1.46-1.19-2.7-2.59-4.07-3.87c-2.4-2.24-4.62-4.65-6.84-7.06
			c-0.68-0.74-1.36-1.48-2.14-2.11c-1.04-0.85-1.98-1.78-2.72-2.91c-0.14-0.22-0.31-0.45-0.52-0.6c-1.54-1.11-2.65-2.64-4-3.94
			c-1.39-1.34-2.71-2.77-4.06-4.15c-0.14-0.14-0.33-0.26-0.42-0.43c-1.43-2.46-3.84-4.07-5.46-6.36c-1.53-1.14-2.46-2.81-3.71-4.19
			c-0.98-1.09-2-2.15-3.04-3.19c-0.99-0.99-1.85-2.1-2.95-2.99c-0.56-0.46-1.01-1.06-1.48-1.63c-0.93-1.15-1.86-2.28-3.03-3.19
			c-0.16-0.12-0.34-0.24-0.45-0.4c-1.51-2.09-3.73-3.44-5.5-5.25c-1.22-1.24-2.37-2.54-3.57-3.79c-1.8-1.89-3.61-3.76-5.42-5.63
			c-0.93-0.96-1.89-1.89-2.84-2.84c-0.9-0.9-1.82-1.78-2.7-2.69c-0.79-0.82-1.54-1.67-2.31-2.5c-0.46-0.49-0.89-1.01-1.4-1.44
			c-2.12-1.85-3.96-3.97-5.88-6.01c-2.52-2.67-5.18-5.2-7.74-7.83c-1.54-1.58-3.33-2.88-4.7-4.63c-0.69-0.88-1.61-1.59-2.43-2.37
			c-0.82-0.78-1.66-1.54-2.45-2.34c-2.48-2.52-4.95-5.06-7.42-7.59c-0.28-0.29-0.55-0.59-0.85-0.85c-0.43-0.37-0.66-0.77-0.72-1.36
			c-0.06-0.54-0.41-1.01-1.08-0.94c-0.49,0.04-0.75-0.32-0.98-0.6c-1.04-1.22-2.29-2.22-3.36-3.41c-0.98-1.08-2.17-1.98-2.94-3.26
			c-0.03-0.06-0.08-0.13-0.14-0.15c-1.27-0.46-1.9-1.63-2.76-2.54c-0.83-0.87-1.67-1.73-2.52-2.58c-1.04-1.04-2.09-2.05-3.14-3.08
			c-0.29-0.28-0.57-0.57-0.82-0.88c-0.3-0.38-0.3-0.92-0.03-1.31c0.64-0.91,1.48-1.56,2.57-1.79c1.06-0.23,2.05-0.6,2.98-1.15
			c0.34-0.2,0.73-0.42,1.11-0.43c1.85-0.08,3.46-0.99,5.22-1.41c1.49-0.36,2.82-1.23,4.38-1.39c0.62-0.55,1.43-0.68,2.14-1.02
			c2.06-1.01,4.29-1.5,6.44-2.22c2.22-0.74,4.47-1.36,6.69-2.1c3.74-1.25,7.42-2.67,11.19-3.8c3.14-0.94,6.27-1.94,9.27-3.22
			c3.33-1.43,6.88-2.16,10.19-3.61c3.92-0.91,7.53-2.74,11.39-3.82c2.57-0.72,5.07-1.65,7.59-2.55c1.88-0.67,3.77-1.33,5.68-1.92
			c3.13-0.97,6.28-1.85,9.4-2.83c1.91-0.6,3.78-1.32,5.66-2.01c1.94-0.71,3.84-1.51,5.82-2.16c2.98-0.98,5.98-1.9,8.97-2.83
			c1.02-0.32,2.08-0.49,3.12-0.75c0.84-0.21,1.7-0.4,2.52-0.68c0.49-0.17,0.99-0.43,1.37-0.78c0.51-0.46,0.91-0.98,1.72-0.6
			c0.19,0.09,0.51-0.09,0.77-0.16c0.9-0.24,1.81-0.47,2.7-0.73c0.38-0.11,0.73-0.3,1.11-0.44c0.44-0.16,0.88-0.32,1.33-0.43
			c1.55-0.4,3.11-0.76,4.66-1.17c1.09-0.29,2.16-0.63,3.24-0.96c1.02-0.31,2.02-0.67,3.05-0.95c1.03-0.29,2.07-0.55,3.11-0.75
			c1.59-0.3,3.07-0.9,4.59-1.42c0.82-0.28,1.67-0.46,2.49-0.72c1.4-0.44,2.78-0.94,4.18-1.34c1.41-0.41,2.84-0.76,4.28-1.08
			c0.91-0.2,1.86-0.24,2.77-0.46c1.2-0.29,2.32,0.02,3.26,0.61c1.92,1.21,3.95,2.26,5.69,3.74c0.15,0.13,0.33,0.24,0.46,0.39
			c1.82,1.99,4.13,3.39,6.22,5.06c0.72,0.58,1.46,1.11,2.05,1.88c0.49,0.65,1.36,1.02,2.07,1.5c0.49,0.33,1.05,0.59,1.5,0.98
			c2.99,2.57,6.17,4.9,9.34,7.24c1.13,0.83,2.17,1.78,3.28,2.64c1.22,0.94,2.49,1.81,3.71,2.74c1.17,0.89,2.29,1.84,3.44,2.75
			c2.74,2.14,5.48,4.28,8.23,6.41c0.31,0.24,0.67,0.45,1.04,0.57c1.31,0.43,2.33,1.16,3.15,2.32c0.52,0.74,1.31,1.33,2.07,1.86
			c2.01,1.42,4.07,2.78,6.11,4.16c0.28,0.19,0.56,0.37,0.82,0.58c1.22,1.01,2.38,2.09,3.76,2.93c1.36,0.83,2.52,1.97,3.78,2.96
			c0.89,0.7,1.84,1.33,2.72,2.04c2.23,1.81,4.51,3.58,6.64,5.51c3.62,3.28,7.52,6.21,11.18,9.44c1.65,1.45,3.53,2.63,5.23,4.02
			c1.75,1.44,3.45,2.93,5.41,4.08c2.44,2.29,5.26,4.1,7.81,6.24c0.51,0.43,0.74,1.05,1.14,1.5c0.35,0.39,1.13,0.36,1.63,0.67
			c0.73,0.46,1.37,1.06,2.05,1.59c0.73,0.57,1.48,1.13,2.22,1.69c0.21,0.16,0.49,0.26,0.66,0.45c1.34,1.42,3.06,2.37,4.53,3.64
			c1.06,0.91,2.21,1.71,3.31,2.58c2,1.57,3.98,3.16,5.98,4.73c0.63,0.49,1.29,0.95,1.94,1.42c0.16,0.12,0.36,0.19,0.5,0.34
			c1.62,1.7,3.76,2.75,5.48,4.34c0.49,0.45,1.04,0.83,1.58,1.22c0.38,0.28,0.86,0.45,1.15,0.8c1.04,1.24,2.35,2.15,3.67,3.04
			C566.58,374.87,566.87,375.59,566.85,376.53z M443.96,364.45c-0.3-0.14-0.63-0.23-0.9-0.42c-0.61-0.41-1.16-0.9-1.78-1.3
			c-2.59-1.67-4.94-3.66-7.38-5.52c-0.32-0.24-0.62-0.51-0.91-0.79c-2.82-2.81-6.17-4.89-9.61-6.83c-0.45-0.25-0.8-0.07-0.83,0.44
			c-0.11,2.07-0.14,4.14-0.33,6.2c-0.17,1.82,0.5,3.27,1.69,4.54c1.54,1.66,2.96,3.43,4.68,4.95c2.05,1.8,3.89,3.85,5.86,5.76
			c2.35,2.28,4.73,4.52,7.1,6.78c0.24,0.23,0.48,0.47,0.73,0.69c2.14,1.92,3.73,4.39,5.97,6.21c0.2,0.17,0.39,0.39,0.5,0.62
			c0.33,0.69,0.91,1.15,1.46,1.64c0.8,0.71,1.7,1.31,2.42,2.08c0.79,0.84,1.68,1.5,2.56,2.22c0.87,0.7,1.64,1.55,2.52,2.27
			c0.41,0.34,0.85,0.65,1.24,1.02c1.42,1.32,2.8,2.67,4.24,3.97c1.09,0.99,2.08,2.06,3.03,3.19c0.93,1.12,2.04,2.11,3.1,3.13
			c0.66,0.63,1.42,0.83,2.39,0.69c0.87-0.13,1.7-0.35,2.53-0.58c1.16-0.32,2.3-0.7,3.45-1.03c0.78-0.22,1.1-0.66,1-1.44
			c-0.09-0.68-0.34-1.3-0.79-1.81c-1.89-2.14-3.96-4.14-5.15-6.81c-0.05-0.11-0.19-0.19-0.29-0.27c-1.18-1.01-1.99-2.32-2.92-3.54
			c-0.08-0.11-0.02-0.35,0.03-0.51c0.01-0.03,0.27-0.05,0.36,0c0.8,0.49,1.59,0.99,2.36,1.51c0.83,0.56,1.61,1.21,2.48,1.69
			c0.88,0.49,1.71,1.03,2.4,1.78c0.31,0.34,0.7,0.64,1.11,0.84c1.9,0.96,3.8,1.92,5.73,2.81c1.03,0.47,2.11,0.85,3.2,1.15
			c0.89,0.24,1.81,0.26,2.77,0.03c2.16-0.51,4.1-1.57,6.21-2.21c2.29-0.7,4.5-1.63,6.74-2.47c0.24-0.09,0.51-0.22,0.67-0.42
			c0.14-0.18,0.29-0.54,0.2-0.71c-0.69-1.37-1.28-2.79-2.29-3.99c-1.6-1.89-3.21-3.76-4.97-5.51c-1.76-1.74-3.43-3.56-5.15-5.35
			c-0.74-0.77-1.53-1.49-2.22-2.31c-1.03-1.23-1.98-2.52-2.96-3.79c-0.06-0.08-0.05-0.21-0.07-0.32c0.06-0.01,0.13-0.03,0.18-0.01
			c0.85,0.38,1.74,0.68,2.42,1.39c1.31,1.36,2.89,2.35,4.42,3.44c1.41,1,2.9,1.86,4.21,3.02c0.69,0.61,1.32,1.35,2.11,1.79
			c1.01,0.57,1.84,1.32,2.69,2.08c0.45,0.4,0.89,0.82,1.36,1.19c1.63,1.26,3.28,2.5,4.9,3.77c0.36,0.28,0.69,0.63,0.92,1.01
			c0.34,0.56,0.86,0.82,1.44,1.01c1.36,0.43,2.64,0.18,3.87-0.45c0.65-0.34,1.28-0.7,1.93-1.04c0.46-0.24,0.58-0.49,0.34-0.97
			c-0.3-0.6-0.52-1.3-0.98-1.73c-1.5-1.41-2.74-3.11-4.57-4.17c-0.34-0.19-0.65-0.48-0.88-0.8c-1.16-1.59-2.74-2.73-4.27-3.9
			c-0.85-0.65-1.63-1.35-2.38-2.11c-0.28-0.28-0.53-0.62-0.86-0.83c-1.41-0.92-2.56-2.12-3.64-3.39c-1.03-1.22-2.02-2.49-3.15-3.6
			c-2.53-2.48-5.1-4.92-7.72-7.31c-1.45-1.31-2.71-2.76-3.87-4.32c-0.03-0.05,0.06-0.2,0.12-0.29c0.02-0.03,0.13-0.03,0.19-0.01
			c0.13,0.04,0.26,0.08,0.36,0.16c1.82,1.47,3.69,2.88,5.43,4.43c1.7,1.51,3.42,2.98,5.25,4.31c1.57,1.15,3.04,2.4,4.52,3.66
			c1.17,1,2.31,2.05,3.59,2.88c1.13,0.73,2.17,1.55,3.16,2.45c0.35,0.31,0.72,0.6,1.09,0.89c1.73,1.36,3.47,2.71,5.2,4.08
			c1.41,1.12,2.75,2.35,4.5,2.95c0.24,0.08,0.48,0.26,0.63,0.46c0.97,1.3,2.48,1.77,3.81,2.52c1.24,0.7,2.75,0.43,4.05,0.97
			c0.1,0.04,0.25-0.04,0.38-0.09c2.09-0.7,4.19-1.37,6.27-2.11c2.7-0.97,5.38-2.02,8.08-3.01c2.38-0.87,4.79-1.67,7.15-2.6
			c1.06-0.42,2.1-0.86,3.2-1.15c0.57-0.15,1.12-0.43,1.66-0.68c0.24-0.11,0.31-0.51,0.13-0.69c-0.98-0.99-1.88-2.08-2.97-2.94
			c-2.35-1.87-4.61-3.86-7.1-5.55c-0.77-0.52-1.52-1.1-2.2-1.73c-1.37-1.27-2.64-2.66-4.22-3.7c-0.28-0.18-0.48-0.47-0.74-0.68
			c-0.83-0.67-1.63-1.4-2.52-1.98c-1.91-1.24-3.7-2.64-5.49-4.02c-1.69-1.3-3.3-2.7-4.98-4.02c-1.68-1.32-3.3-2.7-4.87-4.13
			c-2.47-2.24-4.98-4.44-7.64-6.46c-1.44-1.09-2.9-2.15-4.22-3.37c-1.23-1.13-2.57-2.11-3.74-3.33c-1.51-1.58-3.21-3-4.99-4.3
			c-0.75-0.55-1.38-1.24-2.06-1.89c-0.19-0.18-0.29-0.48-0.51-0.58c-1.18-0.54-1.88-1.67-2.96-2.34c-0.73-0.45-1.37-1.06-1.98-1.67
			c-0.86-0.85-1.84-1.53-2.83-2.2c0.05-0.04,0.14-0.1,0.13-0.12c-0.03-0.1-0.1-0.2-0.15-0.29c-0.02-0.2-0.04-0.4-0.05-0.6
			c-0.04-0.39-0.23-0.67-0.64-0.54c-0.5,0.17-0.92,0.07-1.31-0.23c-1.06-0.8-2.11-1.61-3.16-2.42c-3.05-2.37-5.79-5.13-8.99-7.31
			c-0.82-0.56-1.5-1.32-2.26-1.96c-1.23-1.04-2.45-2.08-3.72-3.07c-1.58-1.23-3.13-2.49-4.45-4.01c-0.21-0.24-0.49-0.5-0.79-0.59
			c-1.78-0.53-2.86-2.18-4.58-2.81c-0.11-0.04-0.2-0.18-0.28-0.28c-1.08-1.22-2.49-2-3.83-2.89c-1.43-0.96-2.98-1.78-4.16-3.09
			c-0.13-0.15-0.27-0.33-0.45-0.4c-1.51-0.62-2.58-1.84-3.84-2.81c-1.54-1.18-3.17-2.23-4.72-3.39c-1.33-1-2.83-1.78-3.96-3.04
			c-1.4-1.56-3.04-2.8-4.88-3.8c-0.29-0.16-0.59-0.37-0.77-0.63c-0.61-0.93-1.44-1.55-2.4-2.07c-0.4-0.22-0.71-0.6-1.07-0.88
			c-0.68-0.54-1.35-1.09-2.07-1.58c-0.6-0.41-1.14-0.26-1.52,0.39c-0.19,0.33-0.32,0.73-0.38,1.11c-0.06,0.39,0.01,0.8,0.01,1.2
			c-0.01,1.19-0.4,2.39,0.2,3.55c0.08,0.16,0.01,0.39-0.01,0.59c-0.07,0.93-0.17,1.87-0.22,2.8c-0.06,0.94-0.08,1.87-0.11,2.81
			c-0.03,0.9-0.44,1.8-0.04,2.71c0.05,0.1-0.04,0.26-0.05,0.39c-0.32,2.87-0.24,5.74-0.24,8.62c0,0.44,0.1,0.97,0.36,1.31
			c0.92,1.23,1.97,2.36,2.76,3.69c0.13,0.22,0.38,0.37,0.58,0.55c0.84,0.76,1.75,1.42,2.55,2.26c0.76,0.81,1.85,1.31,2.78,1.96
			c0.32,0.23,0.63,0.48,0.92,0.75c0.99,0.9,1.88,1.96,2.99,2.67c1.81,1.16,3.38,2.59,5.1,3.85c1.24,0.91,2.44,1.86,3.65,2.8
			c0.79,0.61,1.63,1.17,2.33,1.88c0.55,0.56,1.08,1.13,1.69,1.63c0.41,0.34,0.81,0.69,1.23,1.01c0.46,0.36,0.96,0.66,1.39,1.05
			c0.44,0.4,0.81,0.88,1.23,1.3c0.28,0.28,0.56,0.65,0.9,0.73c0.64,0.16,1.05,0.58,1.46,1.01c0.46,0.48,0.79,1.2,1.34,1.45
			c0.63,0.28,1.11,0.71,1.62,1.11c0.63,0.49,1.19,1.08,1.78,1.62c0.05,0.05,0.11,0.1,0.12,0.15c0.04,0.12,0.05,0.25,0.07,0.37
			c-0.17,0.01-0.41,0.11-0.5,0.03c-2.34-1.98-4.74-3.89-7.34-5.51c-2.56-1.6-5.05-3.28-7.43-5.12c-1.59-1.22-3.22-2.39-4.83-3.58
			c-0.97-0.71-1.93-1.44-2.91-2.13c-1.31-0.92-2.64-1.82-3.97-2.71c-0.66-0.45-1.3-0.98-2.04-1.26c-2.11-0.83-4.24-1.63-6.48-2.09
			c-0.5-0.1-0.82,0.03-0.96,0.46c-0.2,0.63-0.37,1.28-0.5,1.93c-0.59,2.89-0.68,5.84-0.75,8.77c-0.07,2.81,0.05,5.62-0.01,8.43
			c-0.06,2.87,0.21,5.74,0.1,8.61c-0.02,0.46,0.06,0.93,0.11,1.4c0.08,0.73,0.15,1.46,0.26,2.18c0.14,0.99,0.25,1.99,0.48,2.95
			c0.14,0.57,0.39,1.17,0.76,1.61c0.94,1.13,1.93,2.22,2.97,3.25c0.95,0.94,1.99,1.78,2.98,2.68c0.99,0.89,2.05,1.74,2.95,2.71
			c2.46,2.66,5.07,5.16,7.69,7.64c0.78,0.74,1.61,1.41,2.37,2.16c0.7,0.7,1.53,1.34,1.53,2.48L443.96,364.45z M322.52,331.13
			l-0.04-0.05c-0.06,0.18-0.08,0.49-0.19,0.53c-1.39,0.49-2.21,1.97-3.75,2.19c-2.92,1.64-6,2.9-9.12,4.11
			c-1.18,0.46-2.41,0.83-3.54,1.4c-1.69,0.86-3.52,1.29-5.31,1.78c-1.49,0.41-2.91,0.95-4.34,1.52c-0.74,0.3-1.27,0.88-1.41,1.57
			c-0.25,1.3-0.47,2.65-0.09,3.96c0.12,0.42,0.38,0.93,0.73,1.14c0.97,0.59,2,1.09,3.21,0.65c0.56-0.2,1.15-0.42,1.73-0.43
			c1.86-0.03,3.5-0.7,5.14-1.47c1.45-0.68,2.89-1.44,4.41-1.91c2.67-0.81,5.28-1.82,8.05-2.36c1.89-0.37,3.72-1.07,5.53-1.75
			c1.87-0.71,3.89-1,5.63-2.05c0.17-0.1,0.38-0.12,0.57-0.18c1.97-0.64,3.93-1.28,5.89-1.93c2.16-0.72,4.29-1.51,6.47-2.15
			c1.41-0.42,2.84-0.74,4.21-1.29c1.36-0.54,2.83-0.74,4.21-1.23c1.76-0.62,3.48-1.34,5.33-1.72c0.51-0.1,0.98-0.42,1.48-0.6
			c0.55-0.19,1.1-0.51,1.7-0.14c0.45-0.27,0.88-0.58,1.36-0.78c0.36-0.15,0.77-0.16,1.17-0.2c0.08-0.01,0.18,0.13,0.24,0.22
			c0.02,0.03-0.01,0.16-0.06,0.18c-0.6,0.29-1.2,0.58-1.82,0.83c-1.36,0.55-2.74,1.07-4.1,1.63c-2.34,0.97-4.67,1.96-7.01,2.94
			c-1.36,0.57-2.72,1.11-4.08,1.68c-2.95,1.23-5.9,2.46-8.86,3.69c-2.28,0.95-4.58,1.86-6.84,2.85c-1.26,0.55-2.51,1.12-3.8,1.59
			c-0.63,0.22-1.24,0.43-1.84,0.73c-1.13,0.55-2.3,1.08-3.62,1.05c-0.5-0.01-0.87,0.19-1.25,0.52c-0.34,0.29-0.78,0.55-1.21,0.62
			c-1.1,0.18-1.98,0.74-2.84,1.4c-0.52,0.4-1.1,0.84-1.72,0.97c-0.87,0.19-1.62,0.59-2.41,0.95c-2.02,0.93-2.9,2.69-3.42,4.67
			c-0.2,0.76,0,1.62-0.18,2.39c-0.2,0.85-0.22,1.69-0.26,2.54c-0.03,0.61,0.19,1.07,0.56,1.44c1.33,1.31,2.7,2.58,4.06,3.85
			c1.17,1.08,2.41,2.1,3.54,3.23c0.77,0.76,1.6,1.41,2.49,2c0.67,0.44,1.33,0.9,2.05,1.24c1.85,0.87,3.74,1.35,5.82,0.67
			c1.7-0.56,3.31-1.47,5.18-1.47c1.6-0.9,3.46-0.98,5.14-1.67c0.99-0.41,2.03-0.69,3.05-0.99c2.51-0.72,5.07-1.24,7.51-2.19
			c0.31-0.12,0.64-0.21,0.97-0.25c1.88-0.25,3.55-1.12,5.32-1.72c2.65-0.89,5.19-2.14,8.03-2.43c0.26-0.03,0.52-0.14,0.77-0.21
			c1.16-0.32,2.3-0.67,3.47-0.97c1.43-0.36,2.87-0.64,4.29-1c0.91-0.23,1.78-0.58,2.69-0.79c0.54-0.13,1.14-0.53,1.69,0.03
			c0.29,0.3-0.18,0.74-1.29,1.2c-0.06,0.03-0.13,0.04-0.19,0.06c-2.55,0.98-5.09,2-7.66,2.92c-3.33,1.2-6.44,2.91-9.78,4.07
			c-1.69,1.18-3.79,1.28-5.62,2.09c-1.2,0.53-2.52,0.82-3.79,1.19c-0.51,0.15-1.07,0.14-1.57,0.32c-2.07,0.75-4.19,1.34-6.36,1.75
			c-0.92,0.17-1.83,0.39-2.71,0.7c-0.94,0.33-1.82,0.84-2.75,1.19c-1.48,0.56-2.67,1.49-3.77,2.58c-0.4,0.4-0.78,0.82-0.58,1.39
			c0.21,0.57,0.83,0.62,1.35,0.71c0.33,0.06,0.67,0.05,1,0.07c0.53,0.03,1.1-0.03,1.6,0.11c1.84,0.54,3.41-0.23,4.99-0.95
			c0.18-0.08,0.32-0.25,0.5-0.33c0.37-0.15,0.75-0.36,1.12-0.37c1.23-0.04,2.38-0.38,3.5-0.82c1.19-0.46,2.52-0.38,3.66-1.02
			c0.26-0.15,0.64-0.1,0.97-0.1c0.08,0,0.18,0.17,0.24,0.28c0.03,0.04,0.02,0.14-0.02,0.17c-0.14,0.14-0.27,0.3-0.44,0.4
			c-0.88,0.48-1.72,0.99-2.35,1.83c-0.5,0.66-1.34,0.89-2.15,0.96c-1.69,0.13-3.25,0.69-4.84,1.22c-1.62,0.54-2.67,1.63-3.58,2.95
			c-0.37,0.53-0.3,1.2,0.15,1.67c0.6,0.62,1.25,1.21,1.91,1.78c0.19,0.16,0.48,0.26,0.73,0.29c0.94,0.12,1.88,0.06,2.78-0.25
			c1.51-0.52,3.01-1.08,4.5-1.65c0.62-0.24,1.21-0.56,1.82-0.84c0.48-0.22,0.95-0.49,1.46-0.64c1.16-0.35,2.27-0.76,3.22-1.55
			c0.15-0.12,0.34-0.22,0.53-0.25c1.15-0.16,2.13-0.7,3.16-1.18c1.02-0.48,2.16-0.7,3.24-1.04c0.19-0.06,0.36-0.18,0.54-0.26
			c0.74-0.3,1.49-0.59,2.23-0.91c0.67-0.29,1.39-0.52,1.99-0.91c0.68-0.44,1.48-0.48,2.19-0.81c0.54-0.25,1.14-0.35,1.52-0.89
			c0.09-0.14,0.33-0.22,0.51-0.24c1.83-0.18,3.44-0.98,5.05-1.75c0.42-0.2,0.87-0.34,1.3-0.5c1.25-0.46,2.51-0.92,3.76-1.38
			c0.44-0.16,0.86-0.37,1.3-0.52c1.83-0.63,3.67-1.24,5.5-1.87c0.76-0.26,1.65-0.39,2.21-0.89c0.69-0.62,1.47-0.46,2.19-0.72
			c0.06-0.02,0.14-0.03,0.19-0.07c0.83-0.65,1.89-0.62,2.82-0.96c1-0.37,1.98-0.81,2.98-1.16c2.57-0.89,5.26-1.44,7.76-2.56
			c0.85-0.38,1.76-0.56,2.53-1.16c0.4-0.31,1.22,0.07,1.44-0.72c0.46-0.02,0.95,0.06,1.38-0.06c1.09-0.32,2.15-0.71,3.21-1.12
			c1.62-0.62,3.23-1.25,4.92-1.68c0.58-0.15,1.16-0.3,1.75-0.44c1.16-0.28,1.86-1.05,2.13-2.16c0.14-0.57,0.16-1.19,0.16-1.78
			c-0.01-1.14-0.11-2.27-0.13-3.41c-0.02-1.2,0.09-2.41,0.02-3.6c-0.13-2.2-0.11-4.41-0.07-6.61c0.05-2.88,0.06-5.76,0.14-8.63
			c0.03-1.17-0.45-2.05-1.21-2.85c-0.46-0.48-1-0.65-1.63-0.4c-0.56,0.22-1.09,0.54-1.66,0.69c-2.2,0.56-4.41,1.08-6.61,1.6
			c-0.19,0.05-0.46,0.16-0.58,0.08c-0.89-0.59-1.44,0.07-2.1,0.48c-0.68,0.41-1.41,0.72-2.23,0.85c-0.65,0.1-1.26,0.4-1.9,0.61
			c-0.89,0.3-1.78,0.59-2.67,0.89c-1.89,0.64-3.83,1.12-5.72,1.8c-1.3,0.47-2.57,1.09-3.93,1.37c-2.43,0.49-4.72,1.4-7.05,2.21
			c-0.48,0.17-0.89,0.25-1.32-0.05c-0.16-0.11-0.35-0.2-0.49,0.05c-0.36,0.67-1.05,0.75-1.69,0.92c-0.32,0.08-0.68,0.11-0.93,0.29
			c-0.87,0.58-1.92,0.54-2.85,0.9c-0.33,0.13-0.65,0.02-0.93-0.22c-0.25-0.21-0.5-0.16-0.68,0.09c-0.2,0.27-0.34,0.58-0.76,0.45
			c-1.46,0.89-3.13,0.98-4.75,1.28c-1.07,0.19-2.09,0.22-3.1-0.22c-0.14-0.06-0.43,0.09-0.34-0.24c0.03-0.1,0.19-0.18,0.31-0.22
			c0.93-0.35,1.87-0.69,2.81-1.03c0.81-0.3,1.63-0.59,2.44-0.91c2.05-0.81,4.11-1.62,6.15-2.46c0.68-0.28,1.29-0.76,1.98-0.95
			c2.52-0.68,4.84-1.91,7.38-2.54c1.81-0.45,3.61-1.04,5.33-1.76c1.29-0.54,2.55-1.11,3.89-1.54c1.71-0.56,3.4-1.21,5.11-1.78
			c2.15-0.72,4.32-1.37,6.48-2.09c0.88-0.29,1.73-0.7,2.61-1.01c2.39-0.84,4.82-1.57,7.18-2.49c1.55-0.61,2.63-1.66,2.63-3.6
			c0.02-3.93,0.2-7.87,0.32-11.8c0.02-0.73,0.08-1.47,0.08-2.2c0-2.47-0.1-4.94-0.03-7.41c0.15-5.07-0.11-10.15,0.25-15.23
			c0.13-1.87,0.17-3.74,0.27-5.62c0.08-1.56-0.23-3.06-0.73-4.52c-0.15-0.43-0.46-0.82-0.76-1.16c-0.42-0.48-0.97-0.69-1.63-0.56
			c-0.33,0.07-0.66,0.11-0.98,0.19c-1.81,0.46-3.63,0.88-5.42,1.41c-1.4,0.41-2.84,0.65-4.24,1.1c-1.9,0.61-3.85,1.14-5.81,1.49
			c-1.65,0.3-3.24,0.71-4.78,1.36c-0.37,0.16-0.76,0.27-1.14,0.38c-3.18,0.97-6.4,1.86-9.36,3.45c-0.52,0.28-1.12,0.41-1.69,0.6
			c-0.44,0.15-0.9,0.24-1.32,0.42c-1.36,0.56-2.71,1.15-4.22,1.24c-0.33,0.02-0.65,0.15-0.96,0.26c-2.78,0.94-5.55,1.92-8.41,2.62
			c-1.03,0.25-2.03,0.66-3.09,0.81c-0.39,0.05-0.75,0.29-1.12,0.44c-0.74,0.3-1.47,0.62-2.22,0.89c-1.19,0.44-2.39,0.85-3.6,1.26
			c-0.51,0.17-1.03,0.41-1.55,0.4c-1.06-0.03-2.12-0.23-2.9,0.79c-0.1,0.13-0.37,0.13-0.56,0.18c-1.93,0.54-3.85,1.11-5.72,1.86
			c-1.18,0.47-2.38,0.94-3.61,1.19c-1.97,0.41-3.85,1.11-5.74,1.74c-2.02,0.68-4,1.48-6.04,2.12c-1.91,0.6-3.8,1.27-5.7,1.88
			c-0.5,0.16-1.05,0.29-1.57,0.28c-0.69-0.02-0.99,0.67-1.61,0.73c-0.2,0.02-0.4,0.07-0.59,0.13c-2.02,0.71-4.04,1.4-6.04,2.14
			c-0.99,0.37-1.96,0.56-3.27,0.53c-0.23,0-0.5,0.11-0.7,0.24c-0.83,0.55-1.62,1.2-2.59,1.44c-2.4,0.6-4.7,1.45-6.97,2.42
			c-0.43,0.18-0.86,0.41-1.31,0.5c-2.18,0.44-4.18,1.4-6.26,2.13c-2.46,0.86-4.84,1.91-7.29,2.81c-2.51,0.91-5.04,1.72-7.61,2.45
			c-2.21,0.63-4.26,1.57-6.18,2.83c-2.32,1.52-2.43,2.09-1.23,4.83c0.13,0.3,0.38,0.55,0.61,0.79c1.62,1.77,3.05,3.72,5,5.19
			c0.16,0.12,0.26,0.3,0.39,0.46c0.86,1.03,1.88,1.89,2.96,2.68c1.25,0.91,2.58,1.65,3.9,2.45c1.8,1.09,3.66,1.9,5.75,2.19
			c0.94,0.13,1.84,0.26,2.77-0.04c0.5-0.16,1.08-0.37,1.55-0.26c1.22,0.3,2.37,0.03,3.56-0.09c2.95-0.29,5.78-0.98,8.54-2.04
			c0.37-0.14,0.77-0.22,1.16-0.33c0.9-0.25,1.8-0.49,2.7-0.77c2.94-0.9,5.86-1.84,8.81-2.7
			C320.02,331.54,321.23,331.11,322.52,331.13z M415.93,367.22c-1.77-0.01-3.1,0.52-4.39,1.02c-2.56,0.98-5.21,1.65-7.81,2.52
			c-2.4,0.81-4.89,1.36-7.27,2.21c-3.02,1.07-6.06,2.09-9.14,2.97c-1.08,0.31-2.14,0.7-3.2,1.09c-0.69,0.25-1.35,0.57-2.03,0.85
			c-2.21,0.92-4.6,1.4-6.67,2.68c-0.33,0.2-0.75,0.28-1.12,0.41c-0.44,0.16-0.9,0.27-1.32,0.48c-2.31,1.18-4.71,2.17-7.13,3.09
			c-0.44,0.17-0.92,0.28-1.28,0.56c-1.04,0.79-2.27,1.12-3.44,1.59c-2.16,0.87-4.35,1.68-6.52,2.53c-1.36,0.53-2.71,1.12-4.08,1.65
			c-2.17,0.85-4.36,1.65-6.54,2.51c-0.36,0.14-0.7,0.4-0.99,0.67c-0.44,0.41-0.5,0.96-0.14,1.45c0.44,0.59,0.91,1.16,1.39,1.72
			c2.27,2.63,4.53,5.26,6.84,7.86c1.77,2,3.54,4.01,5.44,5.88c1.53,1.5,3.03,3.01,4.47,4.58c0.59,0.64,1.17,1.28,1.78,1.9
			c1.18,1.18,2.39,2.33,3.57,3.51c1.04,1.04,2.04,2.12,3.11,3.13c1.89,1.79,3.86,3.5,5.56,5.49c1.09,1.27,2.23,2.48,3.46,3.61
			c0.39,0.36,0.76,0.76,1.06,1.19c0.48,0.69,1.11,1.17,1.88,1.44c0.94,0.33,1.92,0.58,2.87,0.9c0.41,0.14,0.78,0.07,1.17-0.09
			c0.74-0.3,1.49-0.61,2.25-0.85c2.41-0.77,4.89-1.37,7.15-2.56c0.12-0.06,0.24-0.14,0.37-0.15c1.74-0.21,3.25-1.17,4.96-1.53
			c1.62-0.34,3.19-0.95,4.76-1.51c1.62-0.58,3.21-1.26,4.83-1.85c1.81-0.66,3.59-1.44,5.51-1.8c0.45-0.08,0.87-0.33,1.31-0.49
			c2.38-0.89,4.75-1.79,7.14-2.65c1.88-0.68,3.8-1.25,5.67-1.95c2.25-0.85,4.44-1.87,6.81-2.38c0.26-0.06,0.5-0.17,0.75-0.26
			c1.87-0.71,3.7-1.51,5.6-2.11c2.11-0.67,4.15-1.47,6.05-2.62c0.27-0.17,0.63-0.19,0.94-0.29c1.19-0.41,2.42-0.73,3.57-1.25
			c2.07-0.94,4.15-1.84,6.35-2.45c0.19-0.05,0.39-0.11,0.56-0.2c0.82-0.42,1.05-1.32,0.47-2.02c-0.29-0.35-0.66-0.68-1.06-0.9
			c-0.89-0.5-1.63-1.16-2.2-2.01c-1.21-1.8-2.92-3.12-4.49-4.55c-1.08-0.98-2.05-2.06-3.11-3.05c-1.12-1.05-2.1-2.25-3.18-3.34
			c-0.94-0.95-1.94-1.84-2.9-2.77c-0.99-0.97-2.13-1.77-2.98-2.9c-0.47-0.63-1.24-1.02-1.77-1.61c-1.25-1.4-2.55-2.74-4.02-3.91
			c-0.16-0.12-0.29-0.28-0.43-0.42c-2.72-2.57-5.44-5.15-8.17-7.72c-0.92-0.87-1.88-1.69-2.79-2.56c-0.48-0.46-0.89-1-1.33-1.5
			c-0.58-0.65-1.22-1.2-2.09-1.49c-0.69-0.23-1.37-0.56-1.95-0.99C417.3,367.41,416.5,367.19,415.93,367.22z M259.38,316.88
			c-0.16-0.07-0.31-0.15-0.47-0.18c-0.03-0.01-0.17,0.25-0.15,0.27c0.12,0.12,0.28,0.21,0.42,0.31
			C259.24,317.17,259.3,317.06,259.38,316.88z"/>
		<path d="M540.78,574.95c-0.1,0.09-0.18,0.21-0.3,0.26c-1.27,0.58-2.55,1.17-3.83,1.72c-2.03,0.87-4.06,1.7-6.09,2.56
			c-0.67,0.28-1.33,0.59-2,0.88c-2.02,0.89-4.03,1.78-6.05,2.67c-0.31,0.13-0.6,0.31-0.91,0.41c-2.36,0.71-4.56,1.84-6.83,2.76
			c-0.37,0.15-0.76,0.25-1.14,0.36c-0.7,0.2-1.4,0.37-1.99,0.89c-0.34,0.3-0.81,0.46-1.25,0.62c-3.02,1.07-5.81,2.7-8.86,3.69
			c-0.77,0.62-1.77,0.51-2.65,0.81c-2.01,0.71-4.04,1.36-6.06,2.02c-3.1,1-6.17,2.12-9.17,3.39c-0.8,0.34-1.63,0.6-2.46,0.84
			c-1.47,0.43-2.88,1.01-4.31,1.56c-1.43,0.55-2.95,0.89-4.35,1.5c-2.45,1.08-5.04,1.7-7.56,2.57c-1.07,0.37-2.09,0.88-3.16,1.25
			c-1.19,0.41-2.35,0.94-3.62,1.07c-0.13,0.01-0.29,0.01-0.39,0.08c-1.44,0.94-3.16,0.99-4.73,1.53c-0.51,0.17-1.02,0.31-1.52,0.5
			c-1.23,0.48-2.4,1.17-3.8,1.06c-0.12-0.01-0.26,0.06-0.38,0.11c-2.58,1.14-5.33,1.71-8,2.53c-3.06,0.94-6.11,1.91-9.18,2.81
			c-1.73,0.51-3.45,1.03-5.16,1.59c-1.25,0.41-2.61,0.5-3.87,0.96c-0.82,0.3-1.65,0.54-2.48,0.79c-0.19,0.06-0.39,0.09-0.59,0.09
			c-0.12,0-0.3-0.06-0.34-0.14c-0.04-0.08,0.04-0.29,0.12-0.34c0.86-0.51,1.73-1,2.61-1.48c0.76-0.42,1.53-0.81,2.3-1.21
			c0.35-0.18,0.7-0.44,1.08-0.52c1.19-0.26,2.23-0.85,3.26-1.45c1.5-0.87,3.12-1.5,4.7-2.19c3.13-1.35,6.39-2.32,9.58-3.49
			c1.88-0.69,3.77-1.33,5.57-2.22c0.96-0.47,1.97-0.8,3.04-1.01c0.71-0.14,1.4-0.44,2.09-0.68c1.01-0.36,1.99-0.8,3.01-1.08
			c2.32-0.63,4.66-1.16,6.99-1.77c0.64-0.17,1.24-0.49,1.88-0.69c3.39-1.02,6.7-2.27,10.04-3.44c2.65-0.92,5.3-1.81,7.95-2.74
			c0.69-0.24,1.33-0.62,2.02-0.87c1-0.36,2.02-0.72,3.05-0.97c0.67-0.16,1.28-0.32,1.78-0.83c0.48-0.5,1.11-0.7,1.79-0.82
			c0.78-0.14,1.56-0.36,2.31-0.62c2.71-0.94,5.41-1.88,8.1-2.89c2.62-0.98,5.22-2.04,7.83-3.04c1.49-0.58,3.05-1.02,4.49-1.7
			c1.75-0.83,3.6-1.4,5.42-2.01c2.26-0.76,4.59-1.36,6.87-2.1c1.52-0.49,3.01-1.07,4.62-1.24c0.26-0.03,0.51-0.16,0.76-0.26
			c1.67-0.7,3.44-0.95,5.22-1.18c1.39-0.18,2.76-0.49,4.05-1.05c0.11-0.05,0.26,0.01,0.39,0.04
			C540.7,574.85,540.74,574.91,540.78,574.95z"/>
		<path d="M566.95,535.71c0.34-0.22,0.72-0.36,1.04-0.04c0.14,0.14,0.12,0.44,0.18,0.66c-0.17-0.03-0.37-0.02-0.5-0.1
			c-0.27-0.17-0.5-0.39-0.75-0.59L566.95,535.71z"/>
		<path d="M608.38,540.15c-0.12,0.23-0.22,0.48-0.38,0.68c-0.1,0.12-0.3,0.17-0.47,0.18c-0.06,0-0.21-0.22-0.19-0.29
			c0.06-0.17,0.17-0.38,0.32-0.43c0.23-0.09,0.5-0.06,0.76-0.09L608.38,540.15z"/>
		<path d="M554.15,573.47c0.12,0.11,0.29,0.2,0.28,0.26c-0.04,0.17-0.14,0.31-0.22,0.47c-0.13-0.1-0.26-0.21-0.39-0.31
			C553.92,573.74,554.04,573.61,554.15,573.47z"/>
		<path d="M569.2,535.84c-0.04,0.02-0.12,0.07-0.13,0.07c-0.07-0.08-0.12-0.17-0.18-0.26c0.05-0.02,0.13-0.07,0.14-0.06
			C569.1,535.67,569.15,535.76,569.2,535.84z"/>
		<path d="M555.9,572.5c-0.06,0.11-0.11,0.25-0.2,0.3c-0.06,0.04-0.2-0.05-0.3-0.09c0.05-0.11,0.07-0.29,0.15-0.31
			C555.64,572.37,555.78,572.46,555.9,572.5z"/>
		<polygon points="570.48,535.46 570.63,535.42 570.6,535.55 		"/>
		<polygon points="566.65,559.31 566.49,559.24 566.66,559.19 		"/>
		<path d="M553.16,568.76c-0.03,0.01-0.07,0.03-0.1,0.04c-0.01-0.05-0.03-0.1-0.03-0.15c0-0.02,0.06-0.03,0.1-0.04
			C553.14,568.66,553.15,568.71,553.16,568.76z"/>
		<polygon points="563.37,560.24 563.44,560.16 563.35,560.21 		"/>
		<polygon points="563.35,560.21 563.28,560.33 563.37,560.24 		"/>
		<polygon points="557.43,574.92 557.55,574.88 557.53,574.99 		"/>
		<polygon points="580.83,592.29 580.79,592.18 580.9,592.19 		"/>
		<path d="M451.56,640.64c0.15,0,0.31,0,0.46,0.01C451.86,640.64,451.71,640.64,451.56,640.64z"/>
		<path d="M344.66,317.38c0.34,0.1,0.61,0.24,0.6,0.66c-0.01,0.29-0.22,0.48-0.51,0.45c-0.41-0.04-0.56-0.32-0.61-0.67
			C344.1,317.59,344.41,317.34,344.66,317.38z"/>
		<path d="M351.11,317.83c0.59-0.2,1-0.16,1.14,0.19c0.07,0.19,0.01,0.57-0.13,0.69c-0.29,0.24-0.69,0.4-1-0.05l-0.05,0.03
			c0.39-0.3,0.31-0.59,0-0.89L351.11,317.83z"/>
		<path d="M404.01,288.88c0.04-0.05,0.07-0.09,0.11-0.14c0.08,0.07,0.16,0.13,0.23,0.21c0.01,0.01-0.06,0.09-0.1,0.14
			C404.17,289.02,404.09,288.95,404.01,288.88z"/>
		<path d="M322.52,331.13c0.17-0.08,0.33-0.17,0.5-0.24c0.05-0.02,0.12-0.01,0.18-0.01c-0.06,0.05-0.11,0.12-0.17,0.13
			c-0.18,0.04-0.37,0.05-0.55,0.08C322.47,331.08,322.52,331.13,322.52,331.13z"/>
		<path d="M391.6,284.56c0.11,0.04,0.22,0.08,0.33,0.12c-0.06,0.1-0.11,0.24-0.19,0.27c-0.08,0.03-0.2-0.08-0.3-0.12
			C391.49,284.74,391.55,284.65,391.6,284.56z"/>
		<path d="M351.11,318.66c-0.42-0.27-0.18-0.55,0-0.83l-0.05-0.03c0,0.3,0,0.59,0,0.89L351.11,318.66z"/>
		<polygon points="273.98,321.33 273.83,321.25 274,321.2 		"/>
		<polygon points="380.35,289.85 380.48,289.91 380.34,289.94 		"/>
		<polygon points="373.97,359.56 373.97,359.45 374.09,359.5 		"/>
		<path d="M445.55,366.07c-0.58-0.49-1.36-0.78-1.59-1.62l-0.05,0.05c1.02,0.05,1.41,0.73,1.59,1.62L445.55,366.07z"/>
		<path d="M445.5,366.12c0.4,0.06,0.79,0.13,1.04,0.5c0.03,0.05,0.04,0.14,0.02,0.19c-0.02,0.04-0.13,0.08-0.15,0.06
			c-0.29-0.26-0.57-0.53-0.86-0.8L445.5,366.12z"/>
		<path d="M462.65,362.99c-0.05,0.03-0.11,0.06-0.16,0.08c-0.01-0.05-0.04-0.12-0.02-0.15c0.03-0.05,0.1-0.08,0.15-0.12
			C462.63,362.87,462.64,362.93,462.65,362.99z"/>
		<path d="M425.72,360.61c0.06-0.02,0.11-0.03,0.17-0.05c0.02,0.07,0.03,0.14,0.05,0.21c-0.06-0.01-0.12-0.01-0.17-0.04
			C425.73,360.71,425.73,360.65,425.72,360.61z"/>
		<path d="M487.39,320.62c0,0.16-0.01,0.32-0.01,0.47C487.38,320.94,487.38,320.78,487.39,320.62z"/>
	</g>
</g>
</svg>
